<svg width="65" height="86" viewBox="0 0 65 86" fill="none" xmlns="http://www.w3.org/2000/svg">
<g clip-path="url(#clip0_437_31)">
<path d="M49.4212 85.4311H5.00457C2.50211 85.4311 0 84.5909 0 83.5545C0 83.0361 0.420244 82.6162 0.938292 82.6162H53.4875C54.0059 82.6162 54.4258 83.0365 54.4258 83.5545C54.4258 84.5909 51.9233 85.4311 49.4212 85.4311Z" fill="#542E7C"/>
<path d="M64.0705 56.9558C62.3246 53.9318 58.4791 52.6352 54.2694 53.2427V50.7119H0.156738V55.2475C0.156738 66.2921 6.77524 75.7918 16.2656 79.9956V80.4511C16.2656 81.1288 16.8151 81.6783 17.4929 81.6783H36.9337C37.6114 81.6783 38.1609 81.1288 38.1609 80.4511V79.9956C41.6535 78.4484 44.7548 76.1823 47.2825 73.3878C47.7332 73.4818 48.2004 73.552 48.6867 73.591C49.0191 73.6177 49.3547 73.6311 49.6937 73.6311C52.2992 73.6311 55.0788 72.8456 57.6255 71.3751C63.7336 67.8486 66.6248 61.3801 64.0709 56.9561L64.0705 56.9558ZM56.2179 68.9369C53.976 70.2312 51.552 70.8895 49.3443 70.8097C52.293 66.6252 54.0838 61.5681 54.2535 56.1018C54.9551 55.974 55.6442 55.9035 56.3029 55.9035C58.6851 55.9035 60.692 56.7353 61.6323 58.3638C63.3804 61.3912 60.9007 66.2333 56.2179 68.9373V68.9369Z" fill="#542E7C"/>
<path d="M28.8712 24.7811C32.7167 29.4616 34.4288 32.2436 33.2772 37.8796C32.9216 39.6193 32.5677 41.4689 31.8029 43.0718L31.7777 43.1243C31.7777 43.1243 32.6362 42.2099 33.3581 41.2246C37.8591 35.0844 39.7285 26.8305 33.6156 20.4989C29.7573 15.8928 27.5531 12.7765 27.2189 7.67934C27.2065 7.48823 27.1972 7.29711 27.1913 7.106C27.117 4.74973 27.5922 2.40831 28.4741 0.222075L28.5225 0.102154C28.4669 0.0675941 28.4113 0.0337257 28.3556 -0.000488281C27.9592 0.423212 27.3112 1.14136 26.8028 1.8291C20.4743 10.3916 24.1397 18.0458 28.8712 24.7805V24.7811Z" fill="#542E7C"/>
<path d="M21.9331 37.6174C24.4711 40.1997 25.8542 43.6999 25.7674 47.3193L25.7446 48.2618C25.783 48.3516 26.0221 47.9424 26.3653 47.2637C28.5053 43.0322 27.7131 37.907 24.4117 34.5032C21.5716 32.0661 19.8999 30.3761 19.1752 27.2782C19.1451 27.1493 19.1175 27.0197 19.0919 26.8898C18.813 25.4559 18.8728 23.9767 19.1904 22.5508L19.274 22.1748C19.274 22.1748 18.6993 22.9901 18.3233 23.7262C15.3073 29.6321 18.3392 33.9613 21.9327 37.6174H21.9331Z" fill="#542E7C"/>
</g>
<defs>
<clipPath id="clip0_437_31">
<rect width="65" height="85.4313" fill="white"/>
</clipPath>
</defs>
</svg>
