<svg width="80" height="59" viewBox="0 0 80 59" fill="none" xmlns="http://www.w3.org/2000/svg">
<g clip-path="url(#clip0_437_257)">
<path d="M61.0205 25.0057C64.4937 25.0057 67.3096 21.9577 67.3096 18.1972C67.3096 14.4367 64.4937 11.3887 61.0205 11.3887C57.5474 11.3887 54.7314 14.4367 54.7314 18.1972C54.7314 21.9577 57.5474 25.0057 61.0205 25.0057Z" fill="#542E7C"/>
<path d="M57.9375 31.7497C71.1248 31.9372 68.9554 26.4036 59.2519 26.3983C55.8162 26.3983 54.0796 26.2483 53.7911 25.9322C53.4972 25.6108 53.759 23.7199 53.759 19.9219C53.759 14.8918 53.2941 14.3079 52.6476 13.6008C51.782 12.6634 50.0775 12.508 49.0676 13.6008C47.9936 14.7633 48.0898 29.4463 49.0355 30.7159C49.7141 31.6212 49.7943 31.6319 57.9482 31.7497H57.9375Z" fill="#542E7C"/>
<path d="M32.2842 14.7689C22.3563 14.7689 14.7742 14.0136 10.7507 23.0506C9.74613 25.3004 9.29195 30.1912 9.99192 31.1072C10.3873 31.6268 9.38278 31.4715 45.7173 31.4715V30.0841C45.7867 28.8413 45.8348 26.6878 45.8348 24.2933C45.8348 14.3725 46.4012 14.7743 32.2842 14.7743V14.7689Z" fill="#542E7C"/>
<path d="M79.8609 1.23739L79.0647 0.632065C77.8625 -0.278594 73.7481 -0.192885 72.6474 0.771343L71.8031 1.51058C71.723 18.331 71.6963 28.3322 71.6322 34.2997H8.14832C8.01474 33.2926 8.02008 31.5356 7.93994 28.2679C7.74223 20.4791 7.79032 20.5755 3.92177 20.5755C1.70964 20.5755 1.05241 20.7148 0.576857 21.2826C0.0425264 21.9254 -0.01625 23.7789 -0.000220115 39.8922C0.0158098 55.3787 0.0906161 57.8643 0.560827 58.3786C1.18599 59.0535 6.22473 59.0535 7.14378 58.5928C7.59262 58.3679 7.7262 57.0179 7.8865 52.7539C8.01474 49.2773 7.84376 47.1775 8.10558 47.006C8.22313 46.9257 12.8878 46.8775 19.1502 46.8561H43.6706C57.7823 46.8936 70.8414 46.9953 71.178 47.1346C71.5039 47.2685 71.6268 48.6131 71.6268 52.0093C71.6268 59.5356 72.4123 58.9625 75.9602 58.9678C81.1272 58.9785 79.8662 62.5087 79.8662 1.2481L79.8609 1.23739Z" fill="#542E7C"/>
</g>
<defs>
<clipPath id="clip0_437_257">
<rect width="80" height="59" fill="white"/>
</clipPath>
</defs>
</svg>
