<svg width="80" height="68" viewBox="0 0 80 68" fill="none" xmlns="http://www.w3.org/2000/svg">
<g clip-path="url(#clip0_437_2593)">
<path d="M60.9302 56.9198C60.9202 57.0448 60.8402 57.1648 60.7252 57.2048C60.6102 57.2448 60.4902 57.2048 60.4202 57.0948C59.7302 56.0098 57.8652 54.0348 53.1802 52.8848C48.4852 51.7298 45.9302 52.6248 44.8252 53.2648C44.7152 53.3248 44.5902 53.3098 44.5052 53.2198C44.4202 53.1248 44.4002 52.9898 44.4552 52.8748C45.5252 50.5448 49.0352 47.0848 54.5352 48.3448C59.9952 49.7748 61.0552 54.3598 60.9302 56.9248V56.9198ZM53.7352 38.1398C54.6552 37.7848 55.3402 36.1648 54.8252 34.6698C54.1802 32.7998 51.3452 31.4148 48.2002 32.6998C47.8952 34.3498 47.4452 35.9148 46.9202 37.4148C48.3902 37.9848 52.0202 38.8098 53.7352 38.1398ZM75.4252 22.6248C68.4652 23.4098 60.9802 21.2598 60.9802 21.2598C60.9802 21.2598 53.3702 19.6998 47.5552 15.7898C47.8502 17.5898 48.1202 19.5448 48.3752 21.6298C53.5152 24.2548 58.6602 25.4598 59.8202 25.7398C61.3502 26.1148 68.3802 27.9598 75.4552 27.3448C75.7152 28.9998 75.7002 33.7498 71.9152 46.0798C67.6252 60.0648 54.3402 63.6148 50.9002 62.7698C48.3902 62.1548 42.3302 57.0248 40.2302 48.7098C39.0452 50.0198 37.8202 51.1648 36.5802 52.1448C39.4752 60.6148 45.7552 66.2598 49.8102 67.2548C55.9152 68.7548 71.3202 63.3048 76.1902 47.4248C81.0602 31.5398 81.7302 21.9048 75.4202 22.6198L75.4252 22.6248ZM67.4402 38.3048C65.2452 35.0648 62.2002 34.8898 60.6502 36.3548C59.5102 37.4498 59.3802 39.1998 60.0252 39.9448C61.3252 41.4298 64.8702 42.1798 66.2202 42.2498C67.5752 42.3148 69.2952 41.0398 67.4402 38.3048ZM44.8002 23.2548C46.7252 39.9248 34.5402 51.2698 28.2352 52.3748C21.9202 53.4898 6.59521 46.9898 2.69521 30.6648C-1.20979 14.3448 -1.25479 4.58981 5.12521 5.72481C12.1552 6.97481 19.9652 5.52481 19.9652 5.52481C19.9652 5.52481 27.7952 4.21981 33.9752 0.644813C39.5802 -2.59519 42.8752 6.58481 44.8002 23.2548ZM10.8902 24.3498C12.2052 24.8698 16.4702 25.7048 18.3452 24.9098C19.2902 24.5148 19.9252 22.8548 19.3102 21.3598C18.4852 19.3448 15.0452 17.9698 11.5602 19.9798C8.61021 21.6848 9.58521 23.8248 10.8902 24.3498ZM35.1302 34.0898C35.1302 33.9548 35.0502 33.8198 34.9152 33.7748C34.7802 33.7248 34.6302 33.7648 34.5402 33.8798C33.6052 35.0248 31.1902 36.8348 25.4602 37.8448C19.7302 38.8498 16.7502 37.9898 15.4852 37.2348C15.3652 37.1598 15.2102 37.1748 15.1002 37.2698C14.9902 37.3598 14.9552 37.5048 15.0052 37.6398C16.0602 40.2298 19.6352 44.1798 26.3452 43.0948C33.0152 41.8198 35.0252 36.8948 35.1302 34.0948V34.0898ZM32.8952 15.9748C28.9302 15.2748 26.1702 17.7448 26.0852 19.9198C26.0202 21.5248 27.1852 22.8748 28.2052 22.9298C30.2402 23.0348 33.9652 20.7898 35.0202 19.8498C36.0702 18.9148 36.2502 16.5698 32.8952 15.9798V15.9748Z" fill="#542E7C"/>
</g>
<defs>
<clipPath id="clip0_437_2593">
<rect width="80" height="67.5" fill="white"/>
</clipPath>
</defs>
</svg>
