<svg width="87" height="65" viewBox="0 0 87 65" fill="none" xmlns="http://www.w3.org/2000/svg">
<g clip-path="url(#clip0_437_1097)">
<path d="M10.9467 17.3546C11.9545 13.2444 10.8602 0 10.8602 0H9.42372V13.2444H8.08122V0H6.41533V13.2444H4.96002V0H3.29412V13.2444H1.95163V0H0.511365C0.511365 0 -0.579176 13.2444 0.424874 17.3546C1.43268 21.4611 4.18912 22.9014 4.18912 22.9014C4.18912 22.9014 -0.808566 65 5.68203 65C12.1726 65 7.17495 22.9014 7.17495 22.9014C7.17495 22.9014 9.93138 21.4649 10.9392 17.3546H10.9467Z" fill="#542E7C"/>
<path d="M85.6411 35.0326C85.6411 35.0326 85.6411 32.8177 85.6411 32.0769C85.6223 24.7326 85.5057 3.4746 85.4945 1.24839C85.4945 1.11678 85.4493 0.98516 85.3628 0.876106C84.9191 0.308272 83.3886 -1.21096 81.4745 1.86135C79.1919 5.52031 75.6006 25.308 79.7108 31.2947C79.9628 31.6594 80.8051 32.4379 80.9668 32.844C81.1812 33.3893 81.1398 35.1229 81.1398 35.1229C81.1398 35.1229 77.6651 64.9961 83.1103 64.9961C87.9237 64.9961 85.6449 35.0326 85.6449 35.0326H85.6411Z" fill="#542E7C"/>
<path d="M49.8169 50.1432C59.9564 46.7978 65.464 35.8661 62.1186 25.7266C58.7731 15.5871 47.8414 10.0795 37.7019 13.4249C27.5624 16.7704 22.0548 27.7021 25.4003 37.8416C28.7457 47.9811 39.6774 53.4887 49.8169 50.1432Z" fill="#542E7C"/>
<path d="M43.7609 1.75244C27.1734 1.75244 13.7222 15.1999 13.7222 31.7912C13.7222 48.3825 27.1697 61.83 43.7609 61.83C60.3522 61.83 73.7997 48.3825 73.7997 31.7912C73.7997 15.1999 60.3484 1.75244 43.7609 1.75244ZM59.5136 47.5401C55.3056 51.7481 49.7138 54.0646 43.7609 54.0646C37.8081 54.0646 32.2162 51.7481 28.0083 47.5401C23.8003 43.3321 21.4838 37.7403 21.4838 31.7874C21.4838 25.8346 23.8003 20.2427 28.0083 16.0348C32.2162 11.8268 37.8081 9.51032 43.7609 9.51032C49.7138 9.51032 55.3056 11.8268 59.5136 16.0348C63.7216 20.2427 66.038 25.8346 66.038 31.7874C66.038 37.7403 63.7216 43.3321 59.5136 47.5401Z" fill="#542E7C"/>
</g>
<defs>
<clipPath id="clip0_437_1097">
<rect width="86.1828" height="65" fill="white"/>
</clipPath>
</defs>
</svg>
