<svg width="70" height="51" viewBox="0 0 70 51" fill="none" xmlns="http://www.w3.org/2000/svg">
<path d="M2.73779 38.5879C3.98663 48.9257 25.2559 50.434 35.0001 50.434C44.7443 50.434 66.0135 48.9257 67.2624 38.5879H2.73779Z" fill="#542E7C"/>
<path d="M34.9997 0C25.0447 0 3.05209 2.69555 2.68555 21.4411H67.3139C66.9474 2.69555 44.9548 0 34.9997 0ZM43.4108 4.65477C44.7277 4.65477 45.7949 5.1316 45.7949 5.72196C45.7949 6.31233 44.7277 6.78916 43.4108 6.78916C42.0938 6.78916 41.0266 6.31233 41.0266 5.72196C41.0266 5.1316 42.0938 4.65477 43.4108 4.65477ZM34.9997 4.65477C36.3167 4.65477 37.3839 5.1316 37.3839 5.72196C37.3839 6.31233 36.3167 6.78916 34.9997 6.78916C33.6828 6.78916 32.6156 6.31233 32.6156 5.72196C32.6156 5.1316 33.6828 4.65477 34.9997 4.65477ZM26.5887 4.65477C27.9057 4.65477 28.9729 5.1316 28.9729 5.72196C28.9729 6.31233 27.9057 6.78916 26.5887 6.78916C25.2717 6.78916 24.2045 6.31233 24.2045 5.72196C24.2045 5.1316 25.2717 4.65477 26.5887 4.65477ZM14.522 16.8545C13.205 16.8545 12.1411 16.3777 12.1411 15.7873C12.1411 15.1969 13.2083 14.7201 14.522 14.7201C15.8357 14.7201 16.9061 15.1969 16.9061 15.7873C16.9061 16.3777 15.8389 16.8545 14.522 16.8545ZM15.8097 10.7563C15.8097 10.1659 16.8769 9.68906 18.1939 9.68906C19.5108 9.68906 20.578 10.1659 20.578 10.7563C20.578 11.3466 19.5108 11.8234 18.1939 11.8234C16.8769 11.8234 15.8097 11.3466 15.8097 10.7563ZM22.3848 16.8545C21.0678 16.8545 20.0007 16.3777 20.0007 15.7873C20.0007 15.1969 21.0678 14.7201 22.3848 14.7201C23.7018 14.7201 24.769 15.1969 24.769 15.7873C24.769 16.3777 23.7018 16.8545 22.3848 16.8545ZM24.2208 10.7563C24.2208 10.1659 25.288 9.68906 26.6049 9.68906C27.9219 9.68906 28.9891 10.1659 28.9891 10.7563C28.9891 11.3466 27.9219 11.8234 26.6049 11.8234C25.288 11.8234 24.2208 11.3466 24.2208 10.7563ZM30.2476 16.8545C28.9307 16.8545 27.8635 16.3777 27.8635 15.7873C27.8635 15.1969 28.9307 14.7201 30.2476 14.7201C31.5646 14.7201 32.6318 15.1969 32.6318 15.7873C32.6318 16.3777 31.5646 16.8545 30.2476 16.8545ZM32.6318 10.7563C32.6318 10.1659 33.699 9.68906 35.0159 9.68906C36.3329 9.68906 37.4001 10.1659 37.4001 10.7563C37.4001 11.3466 36.3329 11.8234 35.0159 11.8234C33.699 11.8234 32.6318 11.3466 32.6318 10.7563ZM38.6587 16.8545C37.3417 16.8545 36.2745 16.3777 36.2745 15.7873C36.2745 15.1969 37.3417 14.7201 38.6587 14.7201C39.9756 14.7201 41.0428 15.1969 41.0428 15.7873C41.0428 16.3777 39.9756 16.8545 38.6587 16.8545ZM41.0428 10.7563C41.0428 10.1659 42.11 9.68906 43.427 9.68906C44.7439 9.68906 45.8111 10.1659 45.8111 10.7563C45.8111 11.3466 44.7439 11.8234 43.427 11.8234C42.11 11.8234 41.0428 11.3466 41.0428 10.7563ZM47.0697 16.8545C45.7527 16.8545 44.6855 16.3777 44.6855 15.7873C44.6855 15.1969 45.7527 14.7201 47.0697 14.7201C48.3867 14.7201 49.4539 15.1969 49.4539 15.7873C49.4539 16.3777 48.3867 16.8545 47.0697 16.8545ZM48.9057 10.7563C48.9057 10.1659 49.9729 9.68906 51.2898 9.68906C52.6068 9.68906 53.674 10.1659 53.674 10.7563C53.674 11.3466 52.6068 11.8234 51.2898 11.8234C49.9729 11.8234 48.9057 11.3466 48.9057 10.7563ZM55.4807 16.8545C54.1638 16.8545 53.0966 16.3777 53.0966 15.7873C53.0966 15.1969 54.1638 14.7201 55.4807 14.7201C56.7977 14.7201 57.8616 15.1969 57.8616 15.7873C57.8616 16.3777 56.7944 16.8545 55.4807 16.8545Z" fill="#542E7C"/>
<path d="M69.9968 27.3288C69.9676 26.0994 68.9977 25.1133 67.804 25.1133H62.3285C60.6029 27.092 57.3526 30.5271 55.4778 30.6536C53.2104 30.8061 48.7243 27.1731 46.3791 25.1133H2.19601C1.00232 25.1133 0.0324374 26.0994 0.00324374 27.3288V32.6972H0C0.0291937 33.9265 0.999073 34.9126 2.19277 34.9126H67.804C68.9977 34.9126 69.9676 33.9265 69.9968 32.6972V27.3288Z" fill="#542E7C"/>
</svg>
