<svg width="75" height="71" viewBox="0 0 75 71" fill="none" xmlns="http://www.w3.org/2000/svg">
<g clip-path="url(#clip0_437_304)">
<path d="M70.2444 45.3277C70.2444 45.3277 67.9943 42.0893 63.6749 38.6846C58.2613 46.1103 52.6353 51.2166 51.1051 50.1028C49.5876 49.0033 52.629 42.243 57.9077 34.9202C55.526 33.6623 52.8177 32.5691 49.7874 31.8435C48.7995 33.4531 47.661 35.161 46.3988 36.8943C40.9757 44.3406 35.3322 49.4707 33.7973 48.3537C32.2592 47.2368 35.4115 40.2943 40.8346 32.8479C41.3579 32.1334 41.8811 31.4379 42.3997 30.7677C39.1062 30.5205 35.8 30.5712 32.5176 30.9182C31.4124 32.7956 30.082 34.8236 28.574 36.8943C23.151 44.3406 17.5075 49.4707 15.9725 48.3537C14.4344 47.2368 17.5868 40.2943 23.0098 32.8479C23.0336 32.8162 23.0542 32.7861 23.078 32.7544C17.9784 34.174 13.1246 36.7311 10.4068 39.6368C8.58956 41.5791 6.84055 42.8767 5.64652 44.461C2.44184 48.7007 0.44704 53.7468 0.061717 59.0416C-0.0112248 60.008 -0.0239103 60.9285 0.0474458 61.7159C0.198086 63.3209 1.57922 64.7927 3.08246 65.9413C4.93455 67.3545 7.07047 68.3447 9.32532 68.9214C12.2604 69.6708 17.6534 70.1033 18.692 70.181C20.1825 70.2951 56.4806 70.9969 56.4806 70.9969C56.4806 70.9969 71.2767 71.111 74.2609 62.2879C77.2405 53.4616 70.246 45.3245 70.246 45.3245L70.2444 45.3277Z" fill="#542E7C"/>
<path d="M25.6406 7.08827C25.6406 7.08827 27.1914 7.05341 29.1783 7.60634C34.0448 8.95777 35.8747 14.8721 32.6621 18.7679C30.6768 21.1761 29.1942 24.5776 31.3317 28.4862C31.3317 28.4862 32.5812 22.1457 38.1343 20.5614C39.9927 20.0306 40.8062 18.5239 41.0678 16.7542C42.1714 9.27305 34.6822 3.31282 27.6402 6.08539C26.9853 6.34363 26.3177 6.67476 25.6406 7.08985V7.08827Z" fill="#542E7C"/>
<path d="M37.5001 1.97738C37.5001 1.97738 39.3062 1.93778 41.6229 2.58101C47.2933 4.15583 49.4245 11.0461 45.6807 15.5852C43.3672 18.3894 41.6404 22.3534 44.1299 26.9083C44.1299 26.9083 45.5856 19.5222 52.0552 17.6749C54.2196 17.057 55.1695 15.3016 55.4723 13.2388C56.7567 4.52181 48.0339 -2.42229 39.8279 0.808151C39.0652 1.10917 38.2866 1.49416 37.4985 1.97897L37.5001 1.97738Z" fill="#542E7C"/>
</g>
<defs>
<clipPath id="clip0_437_304">
<rect width="75" height="71" fill="white"/>
</clipPath>
</defs>
</svg>
