<svg width="58" height="55" viewBox="0 0 58 55" fill="none" xmlns="http://www.w3.org/2000/svg">
<g clip-path="url(#clip0_269_8125)">
<path d="M33.5953 36.0176H39.5318C40.5869 36.0176 41.443 36.8759 41.443 37.9337V46.6195C41.443 47.6768 40.5869 48.5356 39.5318 48.5356H33.5953C32.5402 48.5356 31.6841 47.6773 31.6841 46.6195V37.9337C31.6841 36.8759 32.5402 36.0176 33.5953 36.0176Z" fill="white"/>
<path d="M17.604 6.70215V52.4454V55H24.293V52.4454V6.70215H17.604Z" fill="white"/>
<path d="M50.6039 6.70215H7.61475V12.9356H10.2911V50.8859C10.2911 53.1476 12.1377 55 14.3931 55H17.6033V12.9356H24.2924V55H43.825C46.081 55 47.9286 53.1476 47.9286 50.8859V12.9356H50.6039V6.70215ZM41.4424 46.6196C41.4424 47.6801 40.589 48.5357 39.5312 48.5357H33.5947C32.5369 48.5357 31.6835 47.6801 31.6835 46.6196V37.9338C31.6835 36.8738 32.5369 36.0177 33.5947 36.0177H39.5312C40.589 36.0177 41.4424 36.8738 41.4424 37.9338V46.6196Z" fill="#542E7C"/>
<path d="M56.0888 0H1.91123C0.856133 0 0 0.85831 0 1.91609V18.0949C0 19.1526 0.856133 20.0109 1.91123 20.0109H8.24563V16.1788H3.82245V3.83217H54.1776V16.1793H49.9199V20.0115H56.0888C57.1439 20.0115 58 19.1532 58 18.0954V1.91609C58 0.85831 57.1439 0 56.0888 0Z" fill="#542E7C"/>
<path d="M24.293 10.0049H17.604V13.3815H24.293V10.0049Z" fill="white"/>
</g>
<defs>
<clipPath id="clip0_269_8125">
<rect width="58" height="55" fill="white"/>
</clipPath>
</defs>
</svg>
