<svg width="16" height="16" viewBox="0 0 16 16" fill="none" xmlns="http://www.w3.org/2000/svg">
<path d="M8.00004 0C3.58189 0 0 3.58244 0 8.00004C0 12.4176 3.58189 16.0001 8.00004 16.0001C12.4182 16.0001 16.0001 12.4191 16.0001 8.00004C16.0001 3.58094 12.4186 0 8.00004 0ZM8.63035 8.26099L5.57634 11.3145C5.45328 11.4376 5.29176 11.4992 5.13072 11.4992C4.96967 11.4992 4.80815 11.4377 4.68509 11.3145C4.43887 11.0683 4.43887 10.6699 4.68509 10.4237L7.36981 7.73901V3.33426C7.36981 2.98609 7.65195 2.70395 8.00012 2.70395C8.34828 2.70395 8.63043 2.98609 8.63043 3.33426V8.26099H8.63035Z" fill="#542E7C"/>
</svg>
