<svg width="68" height="56" viewBox="0 0 68 56" fill="none" xmlns="http://www.w3.org/2000/svg">
<g clip-path="url(#clip0_269_8167)">
<path d="M66.1775 0H22.0644C21.0569 0 20.2417 0.816026 20.2417 1.82108V18.2815H34.6815C36.375 18.2815 37.7516 19.6584 37.7516 21.3488V46.9607C37.7516 50.6766 35.9212 53.9715 33.1157 55.9985H56.8642C63.0151 55.9985 68.0017 51.0163 68.0017 44.8707V1.82108C68.0017 0.81449 67.1849 0 66.179 0H66.1775ZM49.7381 12.1159H38.5037C37.0441 12.1159 35.8612 10.9341 35.8612 9.47574C35.8612 8.01734 37.0441 6.83557 38.5037 6.83557H49.7381C51.1978 6.83557 52.3806 8.01734 52.3806 9.47574C52.3806 10.9341 51.1978 12.1159 49.7381 12.1159Z" fill="#542E7C"/>
<path d="M35.6366 46.9623V21.3489C35.6366 20.8218 35.209 20.3931 34.6798 20.3931H0.956707C0.429134 20.3931 0 20.8203 0 21.3489V46.9608C0 51.9522 4.04985 56.0001 9.04718 56.0001H26.5909C27.3692 56.0001 28.1213 55.891 28.8412 55.7066C32.7464 54.7061 35.6366 51.1762 35.6366 46.9623ZM9.16101 34.1472V28.8453H8.10432C7.51984 28.8453 7.04764 28.372 7.04764 27.7896C7.04764 27.2071 7.52138 26.7338 8.10432 26.7338H12.3341C12.9186 26.7338 13.3908 27.2071 13.3908 27.7896C13.3908 28.372 12.9171 28.8453 12.3341 28.8453H11.2774V34.1472C11.2774 37.7525 14.2137 40.6846 17.8206 40.6846C18.6773 40.6846 19.4925 40.5156 20.2431 40.2144C22.6549 39.2493 24.3637 36.8965 24.3637 34.1472V28.8453H23.307C22.7226 28.8453 22.2504 28.372 22.2504 27.7896C22.2504 27.2071 22.7241 26.7338 23.307 26.7338H27.5368C28.1213 26.7338 28.5935 27.2071 28.5935 27.7896C28.5935 28.372 28.1198 28.8453 27.5368 28.8453H26.4786V34.1472C26.4786 38.0767 23.8408 41.3961 20.2431 42.4458C19.4741 42.6701 18.6619 42.7977 17.8206 42.7977C13.0463 42.7977 9.16254 38.9173 9.16254 34.1472H9.16101Z" fill="#542E7C"/>
</g>
<defs>
<clipPath id="clip0_269_8167">
<rect width="68" height="56" fill="white"/>
</clipPath>
</defs>
</svg>
