<svg width="499" height="497" viewBox="0 0 499 497" fill="none" xmlns="http://www.w3.org/2000/svg">
<path d="M219.667 49.6509C196.73 92.169 64.6362 32.4753 28.6444 83.4688C-6.64032 133.46 50.9504 175.715 26.7866 289.833C13.7951 351.21 -9.97659 372.569 4.53199 410.358C19.497 449.335 63.8841 476.342 103.752 485.794C185.989 505.289 221.814 443.642 314.245 464.982C346.053 472.326 356.878 483.102 390.285 483.192C398.655 483.211 470.407 484.676 493.215 449.374C512.705 419.206 477.999 390.869 461.825 326.099C431.889 206.204 512.255 148.868 466.325 75.4432C439.127 31.9677 388.685 16.4884 369.259 10.5255C320.346 -4.48467 245.849 -6.63082 225.908 25.555C219.461 35.958 224.828 40.0896 219.667 49.6509Z" fill="#F4F7FA"/>
<path d="M92.3873 269.695C88.7296 275.484 85.072 279.828 81.2407 285.316C109.641 290.366 136.099 300.441 164.885 305.614C154.375 269.419 140.522 251.305 161.433 212.925C171.249 194.914 195.869 162.291 192.63 141.665C188.94 118.167 172.323 119.927 181.001 101.749C194.564 73.3354 187.718 38.2132 143.981 40.8991C100.808 43.5464 76.066 153.013 91.8088 188.283C99.1884 220.976 111.479 239.469 92.3873 269.689V269.695Z" fill="url(#paint0_linear_269_8269)"/>
<mask id="mask0_269_8269" style="mask-type:luminance" maskUnits="userSpaceOnUse" x="87" y="40" width="107" height="238">
<path d="M162.989 209.866C166.698 203.113 197.933 158.693 193.022 140.952C187.429 120.737 172.856 119.066 181.181 101.454C194.192 73.9266 187.866 38.0268 144.013 40.8348C100.731 43.6042 76.0723 153.18 91.8473 188.058C98.5519 223.636 112.553 235.28 91.7508 271.713C77.178 297.229 149.039 235.254 162.989 209.866Z" fill="white"/>
</mask>
<g mask="url(#mask0_269_8269)">
<path d="M125.866 292.531L125.319 292.512C125.66 281.878 125.171 271.096 124.702 260.66L124.522 256.702C124.149 248.317 123.969 240.812 123.809 234.187C123.719 230.46 123.635 226.939 123.526 223.52C123.192 213.072 122.934 205.767 122.806 202.143C122.761 200.928 122.735 200.125 122.722 199.759C121.81 171.158 131.092 131.956 136.08 110.893C136.62 108.612 137.102 106.568 137.507 104.814C144.456 74.6781 148.082 42.4924 148.275 9.14355H148.821C148.628 42.5309 144.996 74.7617 138.041 104.936C137.636 106.69 137.154 108.734 136.614 111.015C131.632 132.052 122.356 171.21 123.269 199.733C123.282 200.099 123.307 200.902 123.352 202.117C123.481 205.741 123.738 213.047 124.072 223.495C124.182 226.913 124.265 230.434 124.355 234.161C124.516 240.78 124.696 248.285 125.069 256.664L125.249 260.622C125.724 271.063 126.213 281.865 125.866 292.518V292.531Z" fill="#FCFDFE"/>
<path d="M123.751 239.655H123.205C123.5 220.719 131.471 198.608 146.269 175.695C158.592 156.611 175.325 137.649 192.18 123.66L192.527 124.084C175.711 138.034 159.016 156.951 146.726 175.99C131.986 198.814 124.04 220.828 123.751 239.655Z" fill="#FCFDFE"/>
<path d="M135.739 114.523L135.257 114.266C142.881 99.783 152.389 86.1736 161.575 73.0139C167.868 64.0053 174.367 54.6946 180.217 45.1719L180.686 45.461C174.83 54.9966 168.318 64.3137 162.025 73.3288C152.845 86.4756 143.351 100.066 135.739 114.523Z" fill="#FCFDFE"/>
<path d="M124.992 166.358C121.36 143.881 106.298 115.429 92.7603 105.476L93.0817 105.032C106.716 115.056 121.874 143.676 125.525 166.268L124.985 166.358H124.992Z" fill="#FCFDFE"/>
</g>
<path d="M96.9449 187.589C92.4644 222.422 113.665 221.805 140.773 222.203C126.136 251.459 112.964 280.483 99.7026 309.983C81.5685 309.45 68.5898 308.73 65.7292 286.896C62.4958 262.203 61.4545 247.848 37.7792 233.994C14.1039 220.141 1.17667 194.888 18.0251 173.253C35.7543 150.487 24.8584 109.306 52.8856 97.8618C101.715 77.9167 101.618 151.316 96.9513 187.589H96.9449Z" fill="url(#paint1_linear_269_8269)"/>
<mask id="mask1_269_8269" style="mask-type:luminance" maskUnits="userSpaceOnUse" x="10" y="94" width="144" height="217">
<path d="M113.774 308.261C93.0302 311.223 69.5992 314.687 65.7165 286.568C62.4831 263.16 61.4675 247.392 37.7665 233.911C14.0655 220.43 1.23468 194.683 17.9996 173.253C35.6387 150.699 25.0449 109.004 52.8729 97.8811C101.355 78.5015 102.216 150.243 96.7072 188.058C91.1982 225.872 119.09 217.738 142.316 224.221C174.026 233.075 130.539 305.871 113.774 308.261Z" fill="white"/>
</mask>
<g mask="url(#mask1_269_8269)">
<path d="M110.792 270.132C89.7391 249.306 72.775 231.372 61.9626 206.107C51.6131 181.927 50.2696 159.219 57.4564 130.163C61.1784 115.101 62.149 103.895 63.1968 88.5059L63.7433 88.5444C62.6954 103.959 61.7248 115.191 57.99 130.298C50.8353 159.226 52.1724 181.831 62.4705 205.895C73.2442 231.07 90.1698 248.966 111.184 269.746L110.798 270.138L110.792 270.132Z" fill="#FCFDFE"/>
<path d="M65.0739 299.709L64.7847 299.246C73.0578 294.086 81.3246 290.424 90.0541 288.034C94.5218 286.813 98.8094 286.414 103.875 286.189L103.901 286.736C98.8737 286.954 94.6246 287.352 90.202 288.56C81.5174 290.932 73.3021 294.581 65.0739 299.709Z" fill="#FCFDFE"/>
<path d="M69.4385 221.098C53.5607 205.336 30.6761 195.035 4.98877 192.099L5.05305 191.553C30.8561 194.502 53.8628 204.86 69.8242 220.706L69.4385 221.098Z" fill="#FCFDFE"/>
<path d="M53.4452 162.323L52.9116 162.207C53.4645 159.624 63.8075 140.026 73.3085 122.549C82.8416 105 93.3389 86.2312 94.3996 85.2031L94.7789 85.5951C93.8789 86.469 84.4615 103.163 73.7842 122.806C64.3025 140.251 53.9851 159.791 53.4452 162.317V162.323Z" fill="#FCFDFE"/>
</g>
<path d="M394.014 282.72C394.014 373.481 320.436 450.421 226.558 454.713C129.06 459.166 47.2158 384.109 47.2158 286.903C47.2158 189.696 129.06 112.666 226.558 114.768C320.436 116.792 394.014 191.958 394.014 282.72Z" fill="url(#paint2_linear_269_8269)"/>
<path d="M401.734 282.72C401.734 373.481 328.156 450.421 234.278 454.713C136.781 459.166 54.936 384.109 54.936 286.903C54.936 189.696 136.774 112.666 234.278 114.768C328.156 116.792 401.734 191.958 401.734 282.72Z" fill="url(#paint3_linear_269_8269)"/>
<path d="M392.06 282.842C392.06 368.36 322.654 440.719 234.278 444.581C142.701 448.584 65.9863 377.992 65.9863 286.775C65.9863 195.557 142.695 123.115 234.278 124.908C322.654 126.636 392.06 197.324 392.06 282.842Z" fill="url(#paint4_linear_269_8269)"/>
<path d="M278.826 318.042C269.949 318.042 261.99 321.955 256.565 328.136L169.97 288.233C170.291 286.492 170.465 284.706 170.465 282.874C170.465 280.927 170.272 279.025 169.912 277.181L255.684 236.552C261.11 243.344 269.454 247.701 278.826 247.701C295.173 247.701 308.422 234.457 308.422 218.111C308.422 201.764 295.173 188.527 278.826 188.527C262.479 188.527 249.224 201.77 249.224 218.111C249.224 219.081 249.275 220.038 249.365 220.983L162.134 262.306C156.753 256.748 149.22 253.291 140.869 253.291C124.522 253.291 111.267 266.534 111.267 282.874C111.267 299.215 124.516 312.464 140.869 312.464C149.342 312.464 156.972 308.904 162.365 303.205L249.533 343.378C249.333 344.772 249.224 346.192 249.224 347.638C249.224 363.978 262.479 377.221 278.826 377.221C295.173 377.221 308.422 363.978 308.422 347.638C308.422 331.298 295.173 318.048 278.826 318.048V318.042Z" fill="white"/>
<path style="mix-blend-mode:multiply" opacity="0.3" d="M158.714 211.1C152.948 192.318 153.211 163.789 181.328 121.637C108.805 142.52 54.936 208.26 54.936 286.903C54.936 384.109 136.781 459.166 234.278 454.714C270.231 453.069 303.144 440.802 330.04 421.345C329.204 395.425 323.567 367.043 307.695 340.871C264.067 268.905 176.803 270.036 158.714 211.107V211.1Z" fill="url(#paint5_linear_269_8269)"/>
<path d="M380.27 449.02C344.349 451.597 314.547 424.121 314.547 387.72C314.547 351.319 344.349 320.733 380.27 319.551C415.439 318.394 443.505 345.96 443.505 380.979C443.505 415.999 415.439 446.501 380.27 449.02Z" fill="url(#paint6_linear_269_8269)"/>
<path d="M384.647 450.479C348.726 453.056 318.925 425.58 318.925 389.179C318.925 352.778 348.726 322.192 384.647 321.01C419.816 319.853 447.882 347.419 447.882 382.438C447.882 417.458 419.816 447.954 384.647 450.479Z" fill="#D8DEE8"/>
<path d="M443.595 382.662C443.595 415.362 417.464 443.706 384.641 446.012C351.163 448.364 323.534 422.829 323.534 388.934C323.534 355.039 351.169 326.618 384.641 325.468C417.457 324.344 443.595 349.956 443.595 382.656V382.662Z" fill="white"/>
<mask id="mask2_269_8269" style="mask-type:luminance" maskUnits="userSpaceOnUse" x="328" y="329" width="112" height="113">
<path d="M439.301 382.888C439.301 413.204 415.053 439.452 384.647 441.547C353.676 443.686 328.143 420.034 328.143 388.696C328.143 357.359 353.676 331.039 384.647 329.941C415.053 328.861 439.301 352.572 439.301 382.888Z" fill="white"/>
</mask>
<g mask="url(#mask2_269_8269)">
<path d="M377.429 344.334C366.803 344.707 356.717 351.267 352.237 359.762C346.843 369.998 354.043 374.464 350.527 390.752C347.287 405.756 339.721 408.77 340.974 418.395C342.343 428.94 352.68 435.031 356.762 437.441C375.134 448.268 403.849 445.955 418.435 429.544C419.656 428.175 429.723 416.84 427.004 407.183C424.574 398.54 414.147 399.144 411.987 390.142C410.129 382.386 417.252 379.379 416.571 368.006C416.436 365.783 415.812 355.251 407.886 350.882C402.608 347.971 396.81 349.288 394.682 349.879C392.13 348.009 385.921 344.038 377.422 344.334H377.429Z" fill="url(#paint7_linear_269_8269)"/>
<path d="M323.534 430.354C323.534 430.354 377.223 395.572 443.595 422.617C443.595 422.617 435.142 449.984 384.641 454.99C332.566 460.149 323.534 430.354 323.534 430.354Z" fill="url(#paint8_linear_269_8269)"/>
<path d="M375.134 386.242L373.122 401.342C372.434 406.496 368.918 410.994 364.019 412.96L347.653 419.533C347.653 419.533 378.971 432.628 418.531 415.016L400.5 409.875C395.383 408.276 391.892 403.649 391.667 398.155L391.153 385.4L375.134 386.236V386.242Z" fill="url(#paint9_linear_269_8269)"/>
<path d="M399.542 371.745C399.542 384.385 391.931 398.392 382.494 398.926C373.006 399.459 365.267 386.171 365.267 373.403C365.267 360.636 373 353.317 382.494 352.918C391.931 352.52 399.542 359.113 399.542 371.752V371.745Z" fill="url(#paint10_linear_269_8269)"/>
<path d="M390.041 360.771C384.918 361.266 377.152 362.853 371.772 368.758C362.74 378.672 367.028 393.451 363.017 394.556C359.436 395.546 353.895 385.156 353.985 373.423C354.062 363.598 357.418 351.871 366.167 348.594C371.303 346.673 372.813 349.385 389.379 350.323C399.028 350.869 395.242 355.36 397.414 356.883C407.05 363.624 405.829 387.263 400.641 387.842C398.179 388.118 394.785 382.129 390.041 360.771Z" fill="url(#paint11_linear_269_8269)"/>
</g>
<path d="M416.037 287.821C381.286 288.927 352.474 260.731 352.474 224.941C352.474 189.15 381.292 160.235 416.037 160.479C450.068 160.717 477.234 188.938 477.234 223.392C477.234 257.846 450.068 286.742 416.037 287.828V287.821Z" fill="url(#paint12_linear_269_8269)"/>
<path d="M420.421 287.821C385.67 288.927 356.858 260.731 356.858 224.941C356.858 189.15 385.676 160.235 420.421 160.479C454.452 160.717 481.618 188.938 481.618 223.392C481.618 257.846 454.452 286.742 420.421 287.828V287.821Z" fill="#D8DEE8"/>
<path d="M477.465 223.437C477.465 255.61 452.17 282.456 420.414 283.427C388.035 284.416 361.313 258.213 361.313 224.883C361.313 191.554 388.035 164.688 420.414 164.868C452.17 165.048 477.465 191.271 477.465 223.437Z" fill="white"/>
<mask id="mask3_269_8269" style="mask-type:luminance" maskUnits="userSpaceOnUse" x="365" y="169" width="109" height="111">
<path d="M473.312 223.489C473.312 253.316 449.843 278.177 420.421 279.038C390.459 279.912 365.768 255.649 365.768 224.832C365.768 194.015 390.459 169.135 420.421 169.263C449.843 169.392 473.312 193.668 473.312 223.495V223.489Z" fill="white"/>
</mask>
<g mask="url(#mask3_269_8269)">
<path d="M361.313 265.763C361.313 265.763 413.234 233.673 477.465 262.897C477.465 262.897 469.282 289.486 420.414 292.41C370.049 295.423 361.313 265.763 361.313 265.763Z" fill="url(#paint13_linear_269_8269)"/>
<path d="M411.216 224.266L409.268 239.038C408.702 248.433 399.581 252.147 399.581 252.147C410.29 264.844 430.758 263.88 437.919 251.466C432.969 249.692 427.428 242.052 427.209 236.635L426.708 224.073L411.209 224.266H411.216Z" fill="url(#paint14_linear_269_8269)"/>
<path d="M434.833 210.971C434.833 223.405 427.466 236.886 418.338 237.033C409.158 237.181 401.676 223.81 401.676 211.248C401.676 198.685 409.158 191.797 418.338 191.772C427.466 191.746 434.833 198.531 434.833 210.965V210.971Z" fill="url(#paint15_linear_269_8269)"/>
<path d="M401.181 214.422C402.1 214.268 403.019 214.107 403.932 213.953C403.508 212.931 401.772 208.388 403.932 204.392C406.002 200.556 410.888 198.666 414.61 198.898C418.839 199.161 421.379 201.134 423.506 199.585C424.702 198.718 425.088 197.144 425.223 195.923C425.319 196.707 425.531 197.857 426.078 199.136C427.659 202.798 430.327 203.543 431.779 205.966C432.757 207.592 433.393 210.322 431.779 215.154C432.583 215.097 433.393 215.039 434.196 214.987C435.045 212.276 436.067 208.433 436.703 203.73C437.648 196.752 438.291 191.952 435.617 189.619C435.084 189.157 432.724 187.312 427.087 189.06C425.763 187.666 422.979 185.102 418.692 183.817C417.207 183.374 409.853 181.163 403.328 185.957C398.892 189.214 395.408 195.293 396.527 200.311C397.118 202.965 398.738 204.147 400.159 209.275C400.757 211.441 401.033 213.265 401.175 214.422H401.181Z" fill="url(#paint16_linear_269_8269)"/>
<path d="M432.538 215.579C432.538 215.579 433.599 210.124 436.813 210.638C440.021 211.152 435.424 220.115 432.538 221.221V215.579Z" fill="url(#paint17_linear_269_8269)"/>
<path d="M403.74 215.862C403.74 215.862 402.66 210.374 399.381 210.946C396.09 211.518 400.802 220.501 403.74 221.555V215.862Z" fill="url(#paint18_linear_269_8269)"/>
</g>
<path d="M309.534 165.948C273.42 165.658 243.464 135.728 243.464 99.2371C243.464 62.7461 273.426 34.4543 309.534 36.1442C344.882 37.7956 373.096 67.681 373.096 102.784C373.096 137.887 344.882 166.23 309.534 165.948Z" fill="url(#paint19_linear_269_8269)"/>
<path d="M313.911 165.948C277.797 165.658 247.841 135.728 247.841 99.2371C247.841 62.7461 277.803 34.4543 313.911 36.1442C349.26 37.7956 377.474 67.681 377.474 102.784C377.474 137.887 349.26 166.23 313.911 165.948Z" fill="#D8DEE8"/>
<path d="M373.167 102.669C373.167 135.452 346.901 161.778 313.911 161.476C280.259 161.161 252.476 133.351 252.476 99.3658C252.476 65.3808 280.259 39.0938 313.911 40.6231C346.901 42.1202 373.167 69.8916 373.167 102.669Z" fill="white"/>
<mask id="mask4_269_8269" style="mask-type:luminance" maskUnits="userSpaceOnUse" x="257" y="45" width="112" height="112">
<path d="M368.853 102.546C368.853 132.939 344.484 157.318 313.911 156.99C282.773 156.656 257.104 130.908 257.104 99.4872C257.104 68.0661 282.773 43.7195 313.911 45.0882C344.477 46.4376 368.853 72.1463 368.853 102.546Z" fill="white"/>
</mask>
<g mask="url(#mask4_269_8269)">
<path d="M269.093 140.965C265.84 131.545 278.048 128.325 279.597 106.401C279.7 104.911 281.77 74.9609 286.379 69.2036C286.989 68.4389 287.677 67.8349 287.677 67.8349C289.978 66.0486 293.54 66.2607 306.248 60.9596C317.138 56.4167 316.508 56.5516 317.916 56.2882C326.105 54.7846 338.21 62.2768 342.195 72.275C345.769 81.2387 341.482 88.8916 347.884 104.654C355.823 127.329 359.796 138.664 356.202 145.784C345.281 167.419 276.389 162.124 269.093 140.971V140.965Z" fill="url(#paint20_linear_269_8269)"/>
<path d="M252.476 140.887C252.476 140.887 306.448 110.301 373.167 142.719C373.167 142.719 364.668 169.481 313.911 170.464C261.566 171.479 252.476 140.887 252.476 140.887Z" fill="url(#paint21_linear_269_8269)"/>
<path d="M304.345 100.785L302.321 115.77C301.633 120.884 298.091 125.106 293.167 126.693L276.717 131.975C276.717 131.975 308.202 147.602 347.968 133.106L329.84 126.513C324.691 124.496 321.187 119.58 320.962 114.054L320.442 101.229L304.339 100.785H304.345Z" fill="url(#paint22_linear_269_8269)"/>
<path d="M328.882 88.2037C328.882 100.875 321.233 114.317 311.744 114.092C302.205 113.867 294.427 99.9304 294.427 87.1242C294.427 74.318 302.199 67.6032 311.744 67.9566C321.233 68.31 328.882 75.526 328.882 88.2037Z" fill="url(#paint23_linear_269_8269)"/>
<path d="M293.855 95.3623C295.5 95.3173 293.122 81.9521 299.499 78.4437C303.728 76.1112 311.069 78.5465 315.203 83.0059C321.708 90.0355 318.07 99.7767 323 102.013C326.131 103.426 330.309 100.715 332.308 98.7036C338.557 92.4194 337.708 78.7329 330.316 70.8101C324.427 64.4938 316.437 64.0183 314.534 63.9669C303.651 63.6585 293.662 71.427 291.373 80.8726C289.612 88.1335 292.646 95.3944 293.861 95.3623H293.855Z" fill="url(#paint24_linear_269_8269)"/>
</g>
<path d="M157.795 319.397C157.795 319.397 169.706 323.394 170.966 343.114C169.025 342.941 164.486 343.044 164.486 343.044C164.486 343.044 165.329 328.708 156.843 325.804C157.525 324.14 157.788 319.397 157.788 319.397H157.795Z" fill="white"/>
<path d="M113.613 317.521C113.915 321.152 114.218 324.782 114.52 328.419C120.511 326.87 127.055 325.078 134.062 324.834C143.151 324.512 151.45 325.63 158.817 327.468C159.145 327.018 159.839 325.939 160.154 324.165C160.668 321.312 159.807 318.922 159.646 318.491C155.898 317.11 151.823 315.941 147.452 315.112C134.878 312.734 123.455 314.7 113.607 317.521H113.613Z" fill="url(#paint25_linear_269_8269)"/>
<path d="M113.048 320.651C113.067 319.34 113.163 317.701 113.613 317.515C114.038 317.342 114.603 318.537 114.848 319.199C114.95 319.475 115.175 320.143 115.31 322.264C115.49 324.994 115.278 326.331 115.085 327.153C114.97 327.648 114.79 328.4 114.52 328.413C114.301 328.426 114.115 327.95 113.838 327.025C113.459 325.778 113.009 323.703 113.048 320.651Z" fill="url(#paint26_linear_269_8269)"/>
<path d="M101.953 343.462C104.479 343.957 110.612 345.428 110.612 345.428C110.612 345.428 106.613 332.628 114.147 326.839C114.34 325.881 114.539 324.352 114.301 322.514C114.115 321.088 113.736 319.951 113.401 319.16C110.207 320.908 103.232 326.858 101.953 343.462Z" fill="white"/>
<path d="M49.1313 346.302C49.1313 346.302 49.4463 339.529 60.1815 339.651C61.8657 340.904 61.9557 346.43 61.9557 346.43L49.1313 346.302Z" fill="url(#paint27_linear_269_8269)"/>
<path d="M39.5599 479.665L68.9499 496.995L86.5955 431.537L57.4562 343.931L49.1316 346.295L36.4486 472.77C36.1594 475.642 37.4064 478.399 39.5535 479.665H39.5599Z" fill="url(#paint28_linear_269_8269)"/>
<path style="mix-blend-mode:multiply" opacity="0.3" d="M86.5952 431.543L57.4559 343.937L49.1313 346.301C51.182 354.076 52.1655 366.722 52.6283 373.751C54.5954 403.669 61.12 411.971 57.9638 432.835C55.3346 450.196 49.5813 452.612 50.0892 464.288C50.6356 477.004 58.0345 487.529 66.7962 495.728L68.9561 497L86.6017 431.543H86.5952Z" fill="url(#paint29_linear_269_8269)"/>
<path d="M57.4561 343.937L213.778 345.569L237.531 480.153L68.9498 497L57.4561 343.937Z" fill="url(#paint30_linear_269_8269)"/>
<g style="mix-blend-mode:multiply" opacity="0.2">
<path d="M213.779 345.569L162.179 345.029C161.221 347.812 159.749 351.667 157.602 356.023C134.139 403.688 79.608 409.844 80.6044 417.786C82.0893 429.654 201.861 412.459 204.85 428.382C206.29 436.061 181.509 453.808 155.346 460.78C123.667 469.223 100.133 459.353 84.3649 477.776C79.0037 484.04 76.6317 491.321 75.4746 496.243L237.531 480.153L213.772 345.569H213.779Z" fill="url(#paint31_linear_269_8269)"/>
</g>
<path d="M60.1816 339.645C58.3689 339.625 55.8297 339.368 53.0656 340.962C52.4742 341.303 51.9535 341.682 51.4971 342.061L52.7699 341.624C54.8205 341.045 57.6361 341.874 58.6903 343.943C59.9824 346.488 60.4516 352.342 60.7345 355.24C61.538 363.49 66.4749 414.76 66.4749 414.76C66.8413 419.078 70.1069 422.336 73.951 422.233L218.76 413.976C219.827 413.95 220.882 413.603 221.769 412.896C223.607 411.431 224.437 408.9 224.012 406.49L216.883 347.253C216.279 343.841 213.688 341.367 210.686 341.335L60.1945 339.638L60.1816 339.645Z" fill="url(#paint32_linear_269_8269)"/>
<path d="M61.7824 339.663C59.9697 339.644 57.8162 339.368 55.4184 339.991C54.7692 340.158 53.7342 340.467 53.2778 340.852C53.2778 340.852 58.369 339.689 60.2975 343.969C61.4739 346.577 62.0524 352.367 62.3353 355.265C63.1388 363.509 68.0693 414.766 68.0693 414.766C68.4357 419.084 71.6948 422.335 75.5453 422.239L221.846 418.39C222.913 418.364 223.967 418.011 224.848 417.31C226.68 415.845 227.509 413.314 227.085 410.91L218.381 347.291C217.777 343.879 215.193 341.405 212.184 341.373L61.7824 339.676V339.663Z" fill="url(#paint33_linear_269_8269)"/>
<path style="mix-blend-mode:multiply" opacity="0.1" d="M227.085 410.904L218.381 347.285C217.777 343.873 215.193 341.399 212.184 341.367L61.7825 339.67C59.9697 339.651 57.8163 339.375 55.4121 339.998C54.7628 340.165 53.7279 340.473 53.2715 340.859C53.2715 340.859 58.3627 339.696 60.2911 343.975C60.4776 344.387 60.6447 344.881 60.799 345.428C75.4747 346.16 90.0668 345.89 104.575 346.983C133.02 349.077 161.466 349.347 187.725 361.067C196.069 364.788 201.771 377.973 199.514 384.033C197.888 388.408 192.321 388.049 190.38 393.806C188.336 399.865 193.24 403.971 191.183 408.225C189.03 412.684 182.467 410.577 171.809 413.796C165.92 415.576 161.388 418.191 158.56 420.054L221.84 418.39C222.907 418.364 223.961 418.011 224.842 417.311C226.674 415.846 227.503 413.314 227.079 410.911L227.085 410.904Z" fill="url(#paint34_linear_269_8269)"/>
<path d="M158.264 430.631L139.943 435.244L138.002 435.418C136.041 435.598 134.357 433.888 134.274 431.627L133.464 410.217C133.38 407.948 134.929 406.072 136.896 406.04L138.851 406.008L157.274 408.36C159.029 408.327 160.501 407.376 160.585 409.491L161.337 429.468C161.414 431.582 160.019 430.489 158.27 430.644L158.264 430.631Z" fill="url(#paint35_linear_269_8269)"/>
<path d="M159.646 433.573L139.352 435.411C137.392 435.591 135.707 433.882 135.624 431.62L134.814 410.21C134.73 407.948 136.279 406.066 138.24 406.033L158.598 405.693C160.353 405.661 161.838 407.37 161.915 409.484L162.667 429.455C162.745 431.569 161.395 433.426 159.646 433.58V433.573Z" fill="url(#paint36_linear_269_8269)"/>
<defs>
<linearGradient id="paint0_linear_269_8269" x1="149.829" y1="369.22" x2="111.176" y2="-102.01" gradientUnits="userSpaceOnUse">
<stop stop-color="#AA80F9"/>
<stop offset="1" stop-color="#6165D7"/>
</linearGradient>
<linearGradient id="paint1_linear_269_8269" x1="36.869" y1="142.402" x2="180.986" y2="349.422" gradientUnits="userSpaceOnUse">
<stop stop-color="#E38DDD"/>
<stop offset="1" stop-color="#9571F6"/>
</linearGradient>
<linearGradient id="paint2_linear_269_8269" x1="98.5069" y1="517.896" x2="359.87" y2="18.0504" gradientUnits="userSpaceOnUse">
<stop stop-color="#444B8C"/>
<stop offset="1" stop-color="#26264F"/>
</linearGradient>
<linearGradient id="paint3_linear_269_8269" x1="106.227" y1="517.896" x2="367.59" y2="18.0504" gradientUnits="userSpaceOnUse">
<stop stop-color="#FFC444"/>
<stop offset="1" stop-color="#F36F56"/>
</linearGradient>
<linearGradient id="paint4_linear_269_8269" x1="320.95" y1="182.988" x2="-134.065" y2="686.551" gradientUnits="userSpaceOnUse">
<stop stop-color="#FFC444"/>
<stop offset="1" stop-color="#F36F56"/>
</linearGradient>
<linearGradient id="paint5_linear_269_8269" x1="54.936" y1="288.272" x2="330.033" y2="288.272" gradientUnits="userSpaceOnUse">
<stop stop-color="#FFC444"/>
<stop offset="1" stop-color="#F36F56"/>
</linearGradient>
<linearGradient id="paint6_linear_269_8269" x1="314.541" y1="384.353" x2="443.505" y2="384.353" gradientUnits="userSpaceOnUse">
<stop stop-color="#444B8C"/>
<stop offset="1" stop-color="#26264F"/>
</linearGradient>
<linearGradient id="paint7_linear_269_8269" x1="404.177" y1="341.648" x2="386.365" y2="396.887" gradientUnits="userSpaceOnUse">
<stop stop-color="#AB316D"/>
<stop offset="1" stop-color="#792D3D"/>
</linearGradient>
<linearGradient id="paint8_linear_269_8269" x1="323.534" y1="433.959" x2="443.595" y2="433.959" gradientUnits="userSpaceOnUse">
<stop stop-color="#FF9085"/>
<stop offset="1" stop-color="#FB6FBB"/>
</linearGradient>
<linearGradient id="paint9_linear_269_8269" x1="382.957" y1="390.644" x2="383.188" y2="435.469" gradientUnits="userSpaceOnUse">
<stop stop-color="#F36F56"/>
<stop offset="1" stop-color="#FFC444"/>
</linearGradient>
<linearGradient id="paint10_linear_269_8269" x1="389.308" y1="326.194" x2="378.993" y2="395.772" gradientUnits="userSpaceOnUse">
<stop stop-color="#F36F56"/>
<stop offset="1" stop-color="#FFC444"/>
</linearGradient>
<linearGradient id="paint11_linear_269_8269" x1="391.166" y1="337.137" x2="372.769" y2="394.195" gradientUnits="userSpaceOnUse">
<stop stop-color="#AB316D"/>
<stop offset="1" stop-color="#792D3D"/>
</linearGradient>
<linearGradient id="paint12_linear_269_8269" x1="352.474" y1="224.163" x2="477.234" y2="224.163" gradientUnits="userSpaceOnUse">
<stop stop-color="#444B8C"/>
<stop offset="1" stop-color="#26264F"/>
</linearGradient>
<linearGradient id="paint13_linear_269_8269" x1="361.313" y1="271.617" x2="477.465" y2="271.617" gradientUnits="userSpaceOnUse">
<stop stop-color="#AB316D"/>
<stop offset="1" stop-color="#792D3D"/>
</linearGradient>
<linearGradient id="paint14_linear_269_8269" x1="418.634" y1="229.098" x2="418.852" y2="272.047" gradientUnits="userSpaceOnUse">
<stop stop-color="#F36F56"/>
<stop offset="1" stop-color="#FFC444"/>
</linearGradient>
<linearGradient id="paint15_linear_269_8269" x1="424.965" y1="169.841" x2="414.123" y2="236.804" gradientUnits="userSpaceOnUse">
<stop stop-color="#F36F56"/>
<stop offset="1" stop-color="#FFC444"/>
</linearGradient>
<linearGradient id="paint16_linear_269_8269" x1="419.264" y1="183.714" x2="413.958" y2="216.492" gradientUnits="userSpaceOnUse">
<stop stop-color="#444B8C"/>
<stop offset="1" stop-color="#26264F"/>
</linearGradient>
<linearGradient id="paint17_linear_269_8269" x1="441.936" y1="172.624" x2="431.133" y2="239.374" gradientUnits="userSpaceOnUse">
<stop stop-color="#F36F56"/>
<stop offset="1" stop-color="#FFC444"/>
</linearGradient>
<linearGradient id="paint18_linear_269_8269" x1="409.043" y1="167.271" x2="398.188" y2="234.362" gradientUnits="userSpaceOnUse">
<stop stop-color="#F36F56"/>
<stop offset="1" stop-color="#FFC444"/>
</linearGradient>
<linearGradient id="paint19_linear_269_8269" x1="243.457" y1="101.011" x2="373.096" y2="101.011" gradientUnits="userSpaceOnUse">
<stop stop-color="#444B8C"/>
<stop offset="1" stop-color="#26264F"/>
</linearGradient>
<linearGradient id="paint20_linear_269_8269" x1="393.493" y1="-29.3135" x2="240.009" y2="261.471" gradientUnits="userSpaceOnUse">
<stop stop-color="#AB316D"/>
<stop offset="1" stop-color="#792D3D"/>
</linearGradient>
<linearGradient id="paint21_linear_269_8269" x1="312.882" y1="140.746" x2="307.05" y2="245.066" gradientUnits="userSpaceOnUse">
<stop stop-color="#444B8C"/>
<stop offset="1" stop-color="#26264F"/>
</linearGradient>
<linearGradient id="paint22_linear_269_8269" x1="312.214" y1="105.913" x2="312.438" y2="150.494" gradientUnits="userSpaceOnUse">
<stop stop-color="#F36F56"/>
<stop offset="1" stop-color="#FFC444"/>
</linearGradient>
<linearGradient id="paint23_linear_269_8269" x1="318.52" y1="41.5796" x2="308.249" y2="110.823" gradientUnits="userSpaceOnUse">
<stop stop-color="#F36F56"/>
<stop offset="1" stop-color="#FFC444"/>
</linearGradient>
<linearGradient id="paint24_linear_269_8269" x1="343.275" y1="30.2261" x2="285.131" y2="140.387" gradientUnits="userSpaceOnUse">
<stop stop-color="#AB316D"/>
<stop offset="1" stop-color="#792D3D"/>
</linearGradient>
<linearGradient id="paint25_linear_269_8269" x1="134.287" y1="359.924" x2="137.678" y2="309.483" gradientUnits="userSpaceOnUse">
<stop offset="0.1" stop-color="#311944"/>
<stop offset="0.27" stop-color="#361B47"/>
<stop offset="0.48" stop-color="#462050"/>
<stop offset="0.72" stop-color="#602A5F"/>
<stop offset="0.97" stop-color="#843773"/>
<stop offset="1" stop-color="#893976"/>
</linearGradient>
<linearGradient id="paint26_linear_269_8269" x1="115.291" y1="323.587" x2="154.046" y2="344.375" gradientUnits="userSpaceOnUse">
<stop offset="0.1" stop-color="#311944"/>
<stop offset="0.27" stop-color="#361B47"/>
<stop offset="0.48" stop-color="#462050"/>
<stop offset="0.72" stop-color="#602A5F"/>
<stop offset="0.97" stop-color="#843773"/>
<stop offset="1" stop-color="#893976"/>
</linearGradient>
<linearGradient id="paint27_linear_269_8269" x1="60.1879" y1="388.44" x2="38.048" y2="185.981" gradientUnits="userSpaceOnUse">
<stop offset="0.1" stop-color="#311944"/>
<stop offset="0.69" stop-color="#6D2E66"/>
<stop offset="1" stop-color="#893976"/>
</linearGradient>
<linearGradient id="paint28_linear_269_8269" x1="156.593" y1="472.449" x2="9.89019" y2="390.728" gradientUnits="userSpaceOnUse">
<stop stop-color="#311944"/>
<stop offset="1" stop-color="#893976"/>
</linearGradient>
<linearGradient id="paint29_linear_269_8269" x1="24.1833" y1="358.818" x2="68.4083" y2="433.005" gradientUnits="userSpaceOnUse">
<stop stop-color="#311944"/>
<stop offset="1" stop-color="#893976"/>
</linearGradient>
<linearGradient id="paint30_linear_269_8269" x1="136.929" y1="270.338" x2="153.057" y2="486.843" gradientUnits="userSpaceOnUse">
<stop offset="0.1" stop-color="#311944"/>
<stop offset="0.69" stop-color="#6D2E66"/>
<stop offset="1" stop-color="#893976"/>
</linearGradient>
<linearGradient id="paint31_linear_269_8269" x1="108.265" y1="392.9" x2="227.061" y2="484.474" gradientUnits="userSpaceOnUse">
<stop stop-color="#311944"/>
<stop offset="1" stop-color="#893976"/>
</linearGradient>
<linearGradient id="paint32_linear_269_8269" x1="77.6537" y1="380.479" x2="127.691" y2="378.537" gradientUnits="userSpaceOnUse">
<stop offset="0.1" stop-color="#311944"/>
<stop offset="0.69" stop-color="#6D2E66"/>
<stop offset="1" stop-color="#893976"/>
</linearGradient>
<linearGradient id="paint33_linear_269_8269" x1="155.539" y1="548.264" x2="138.177" y2="353.072" gradientUnits="userSpaceOnUse">
<stop offset="0.1" stop-color="#311944"/>
<stop offset="0.27" stop-color="#361B47"/>
<stop offset="0.48" stop-color="#462050"/>
<stop offset="0.72" stop-color="#602A5F"/>
<stop offset="0.97" stop-color="#843773"/>
<stop offset="1" stop-color="#893976"/>
</linearGradient>
<linearGradient id="paint34_linear_269_8269" x1="164.011" y1="593.539" x2="134.562" y2="324.265" gradientUnits="userSpaceOnUse">
<stop stop-color="#311944"/>
<stop offset="1" stop-color="#893976"/>
</linearGradient>
<linearGradient id="paint35_linear_269_8269" x1="205.563" y1="451.642" x2="116.715" y2="405.181" gradientUnits="userSpaceOnUse">
<stop stop-color="#FFC444"/>
<stop offset="1" stop-color="#F36F56"/>
</linearGradient>
<linearGradient id="paint36_linear_269_8269" x1="125.898" y1="412.35" x2="216.579" y2="444.816" gradientUnits="userSpaceOnUse">
<stop stop-color="#FFC444"/>
<stop offset="1" stop-color="#F36F56"/>
</linearGradient>
</defs>
</svg>
