<svg width="70" height="16" viewBox="0 0 70 16" fill="none" xmlns="http://www.w3.org/2000/svg">
<path d="M20.7212 6.95832C19.9379 7.02486 19.1866 6.91356 18.9839 6.8815C18.2919 6.7708 17.7251 6.58267 17.3113 6.41511C17.2787 5.75757 17.1008 3.97489 15.7633 2.38094C15.6369 2.23032 13.377 -0.375047 10.076 0.0459729C9.62771 0.102835 7.47967 0.377466 6.20814 2.22245C5.62803 3.06389 5.44837 3.9156 5.38485 4.43281C5.71211 3.95674 6.3146 3.21874 7.29033 2.68461C9.4166 1.52136 12.5688 1.73368 14.1125 3.58653C14.6842 4.27311 14.9038 5.02623 14.9987 5.51923C14.7913 5.41095 14.5826 5.29844 14.3727 5.18532C12.7515 4.31061 10.9138 3.31976 8.7155 3.91621C7.80692 4.16241 6.92375 4.65965 6.22931 5.31537C6.00247 5.52951 5.79982 5.75575 5.62319 5.99167C5.46772 5.86524 5.24149 5.70312 4.94508 5.56036C4.7261 5.4545 3.47635 4.85201 2.079 5.43636C1.92172 5.50229 0.632651 6.06668 0.175941 7.50818C0.108796 7.7193 -0.44833 9.58364 0.850419 10.7124C1.71726 11.4655 3.04021 11.5702 4.12663 10.9532C2.48187 10.8219 1.43356 9.69797 1.5007 8.73676C1.54425 8.11612 2.06448 7.39264 2.82546 7.21903C3.41344 7.08474 4.06735 7.29586 4.4182 7.71869C4.66258 8.01329 4.73154 8.32724 4.74001 8.62062C4.76421 9.47415 5.07029 10.3398 5.64254 11.1613C6.21782 11.987 7.05623 12.7389 7.94303 13.2228C8.58242 13.5718 9.28231 13.8059 10.0106 13.9172C10.8841 14.0479 11.953 13.9306 12.2137 13.8797C12.9814 13.7358 13.703 13.4557 14.34 13.0516C15.7978 12.1255 16.8298 10.5001 17.1934 8.5686C17.5218 8.66357 17.9925 8.77185 18.5641 8.80996C19.1587 8.84928 20.8422 8.96119 22.3702 7.87113C23.4754 7.08293 23.9817 6.03401 24.197 5.48596C23.626 5.93844 22.3611 6.81738 20.7212 6.95772V6.95832ZM15.1167 8.01087C14.8886 9.43302 14.1875 10.6114 13.1919 11.2435C11.9742 12.0166 10.2774 12.0571 8.97078 11.3427C7.48632 10.5321 6.75437 9.12391 6.90379 8.23106C7.06469 7.27287 8.08519 6.30683 9.27747 5.9832C9.54424 5.91061 9.80677 5.87855 10.0675 5.87855C11.1454 5.87855 12.1871 6.43991 13.357 7.07083C13.9178 7.37329 14.5033 7.68905 15.1258 7.95764C15.1227 7.97578 15.1203 7.99393 15.1173 8.01147L15.1167 8.01087Z" fill="url(#paint0_linear_269_8179)"/>
<path d="M14.2476 14.7988H7.49802C7.16661 14.7988 6.89795 15.0675 6.89795 15.3989C6.89795 15.7303 7.16661 15.999 7.49802 15.999H14.2476C14.5791 15.999 14.8477 15.7303 14.8477 15.3989C14.8477 15.0675 14.5791 14.7988 14.2476 14.7988Z" fill="url(#paint1_linear_269_8179)"/>
<path d="M12.7243 13.6064H9.02097C8.68956 13.6064 8.4209 13.8751 8.4209 14.2065C8.4209 14.5379 8.68956 14.8066 9.02097 14.8066H12.7243C13.0557 14.8066 13.3243 14.5379 13.3243 14.2065C13.3243 13.8751 13.0557 13.6064 12.7243 13.6064Z" fill="url(#paint2_linear_269_8179)"/>
<path d="M31.0947 8.84085C31.2369 8.28433 31.3972 7.6528 31.431 7.44895C31.5182 6.93538 31.5454 6.34256 31.0844 5.8423C30.6066 5.32389 29.825 5.15754 28.9945 5.39829C28.6412 5.50052 28.3042 5.65175 27.9788 5.79753C27.6655 5.93787 27.3412 6.08305 27.0122 6.17923C26.4266 6.34982 25.6408 6.3595 25.1896 5.87436L24.8901 5.55254L24.8992 5.99232C24.9083 6.43693 24.9216 7.10838 25.3299 7.55118C25.616 7.8621 26.0824 8.03148 26.6111 8.01393C27.366 7.99095 27.9449 7.65946 28.5577 7.30861C28.6926 7.23118 28.8299 7.15254 28.9721 7.07632C29.1251 6.99405 29.6393 6.74483 29.8498 7.00131C29.9357 7.11564 29.828 7.77862 29.6762 8.28191C29.3054 8.23715 28.6968 8.18331 28.519 8.1815C27.164 8.1694 25.7866 8.72773 24.8314 9.67442C23.8823 10.6151 23.3809 11.8775 23.3809 13.3245C23.3809 14.6565 24.1594 16 25.8979 16C26.6849 16 27.8723 15.4199 28.8329 13.8368C28.8783 14.9499 29.1608 16 30.6598 16C31.2375 16 31.4625 15.8373 31.4625 15.4193C31.4625 15.1979 31.4625 14.8942 31.157 14.8113C30.5551 14.6758 30.3041 14.5077 30.3041 13.8163C30.3041 12.2326 30.6531 10.6181 30.9568 9.38769C30.9919 9.24614 31.0409 9.05257 31.0947 8.84146V8.84085ZM29.499 9.68168C29.4185 10.0573 29.3163 10.5261 29.2298 10.8909C28.2595 13.247 27.1918 14.4417 26.0564 14.4417C25.3849 14.4417 24.9839 14.005 24.9839 13.2743C24.9839 12.059 25.2869 11.1831 25.9094 10.5957C26.5669 9.97567 27.588 9.6714 29.0193 9.6714C29.1741 9.6714 29.3344 9.67503 29.499 9.68229V9.68168Z" fill="#200C32"/>
<path d="M42.0184 14.8107C41.4165 14.6752 41.1648 14.5071 41.1648 13.8157C41.1648 12.232 41.5138 10.6169 41.8175 9.38709C41.852 9.24675 41.901 9.05438 41.9548 8.84448C42.097 8.28614 42.2585 7.65341 42.2924 7.44895C42.3795 6.93538 42.4067 6.34256 41.9458 5.8423C41.4679 5.32389 40.6869 5.15754 39.8558 5.39829C39.5025 5.50052 39.1662 5.65175 38.8401 5.79753C38.5268 5.93787 38.2026 6.08305 37.8735 6.17923C37.2879 6.34982 36.5021 6.3595 36.0509 5.87436L35.7514 5.55254L35.7605 5.99232C35.7696 6.43693 35.7829 7.10838 36.1912 7.55118C36.4779 7.8621 36.9437 8.03148 37.4724 8.01393C38.2274 7.99095 38.8063 7.65946 39.419 7.30861C39.5545 7.23118 39.6919 7.15254 39.8334 7.07571C39.9858 6.99345 40.5006 6.74362 40.7111 7.00071C40.797 7.11503 40.6894 7.77802 40.5375 8.28131C40.1667 8.23654 39.5582 8.18271 39.3803 8.18089C38.0253 8.16879 36.6479 8.72713 35.6928 9.67382C34.7437 10.6145 34.2422 11.8769 34.2422 13.3239C34.2422 14.6559 35.0207 15.9994 36.7592 15.9994C37.5462 15.9994 38.7337 15.4193 39.6943 13.8362C39.7396 14.9493 40.0221 15.9994 41.5211 15.9994C42.0988 15.9994 42.3238 15.8367 42.3238 15.4187C42.3238 15.1973 42.3238 14.8936 42.0184 14.8107ZM40.3603 9.68168C40.2798 10.0573 40.1782 10.5261 40.0911 10.8909C39.1208 13.247 38.0531 14.4417 36.9177 14.4417C36.2463 14.4417 35.8452 14.005 35.8452 13.2743C35.8452 12.059 36.1483 11.1831 36.7707 10.5957C37.4283 9.97567 38.4488 9.6714 39.88 9.6714C40.0348 9.6714 40.1951 9.67503 40.3597 9.68229L40.3603 9.68168Z" fill="#200C32"/>
<path d="M34.1181 14.8126L34.1066 14.8101C33.5585 14.7006 33.2258 14.5712 33.2258 13.705C33.2258 11.5013 33.6027 9.01809 34.3788 6.11269C34.6383 5.13455 35.023 4.16245 35.3581 3.63557L35.3841 3.59444V3.54544C35.3841 3.35671 35.265 3.15527 34.9305 3.15527H34.3909C33.8265 3.15527 33.296 4.06748 32.7685 5.94574C32.2084 8.00002 31.5405 11.0137 31.5405 13.7044C31.5405 15.2699 32.1993 15.9994 33.613 15.9994C34.1907 15.9994 34.4157 15.8367 34.4157 15.4187C34.4157 15.1973 34.4157 14.8936 34.1175 14.8126H34.1181Z" fill="#200C32"/>
<path d="M50.4083 14.8129L50.3738 14.8075C49.2257 14.7409 49.0236 14.4349 49.0236 13.816C49.0236 12.1301 49.4997 10.1115 49.8826 8.48917C49.9667 8.13287 50.0459 7.79594 50.1149 7.48743V7.48622C50.3417 6.4367 50.7137 5.16577 51.2527 3.60086L51.2618 3.57425V3.54642C51.2618 3.30566 51.1003 3.15625 50.8402 3.15625H50.1735C49.496 3.15625 49.167 4.4544 48.631 6.94603C48.2723 6.75549 47.8186 6.64841 47.3486 6.64841C45.8109 6.64841 44.4898 7.40153 43.5292 8.8255C42.6926 10.0656 42.2129 11.7345 42.2129 13.4035C42.2129 15.0724 43.009 15.9998 44.3966 15.9998C45.5199 15.9998 46.6366 15.1995 47.5331 13.7773C47.5313 13.8233 47.5307 13.8681 47.5307 13.9116C47.5307 15.3362 48.2445 16.0004 49.7779 16.0004C50.5637 16.0004 50.7077 15.805 50.7077 15.4197C50.7077 15.1983 50.7077 14.8946 50.4095 14.8135L50.4083 14.8129ZM48.3491 8.37726C48.1725 9.10557 48.0061 9.8853 47.8446 10.6408L47.7902 10.8937C46.7618 13.4138 45.8466 14.4421 44.6338 14.4421C44.4317 14.4421 43.8171 14.4421 43.8171 13.1972C43.8171 10.9203 44.468 8.20606 47.57 8.20606C47.9063 8.20606 48.1671 8.26353 48.3485 8.37726H48.3491Z" fill="#200C32"/>
<path d="M58.778 14.8129L58.7435 14.8075C57.5954 14.7409 57.3934 14.4349 57.3934 13.816C57.3934 12.1301 57.8694 10.1115 58.2523 8.48917C58.3364 8.13287 58.4157 7.79594 58.4846 7.48743V7.48622C58.7115 6.4373 59.0835 5.16638 59.6225 3.60086L59.6315 3.57425V3.54642C59.6315 3.30566 59.47 3.15625 59.2099 3.15625H58.5433C57.8658 3.15625 57.5367 4.4544 57.0002 6.94603C56.6414 6.75549 56.1878 6.64841 55.7177 6.64841C54.1801 6.64841 52.8589 7.40153 51.8983 8.8255C51.0617 10.0656 50.582 11.7345 50.582 13.4035C50.582 15.0724 51.3781 15.9998 52.7658 15.9998C53.8891 15.9998 55.0058 15.1995 55.9022 13.7773C55.9004 13.8233 55.8998 13.8681 55.8998 13.9116C55.8998 15.3362 56.6136 16.0004 58.1471 16.0004C58.9329 16.0004 59.0768 15.805 59.0768 15.4197C59.0768 15.1983 59.0768 14.8946 58.7786 14.8135L58.778 14.8129ZM56.7189 8.37726C56.5429 9.10315 56.3771 9.87986 56.2162 10.6324L56.1605 10.8937C55.1322 13.4138 54.217 14.4421 53.0041 14.4421C52.8021 14.4421 52.1875 14.4421 52.1875 13.1972C52.1875 10.9203 52.8384 8.20606 55.9404 8.20606C56.2767 8.20606 56.538 8.26353 56.7189 8.37726Z" fill="#200C32"/>
<path d="M61.4506 6.20963C62.191 6.20963 62.7929 5.59323 62.7929 4.83527C62.7929 4.23157 62.3912 3.81055 61.8153 3.81055C61.1088 3.81055 60.4888 4.4451 60.4888 5.16858C60.4888 5.762 60.9019 6.20963 61.45 6.20963H61.4506Z" fill="#200C32"/>
<path d="M61.0079 13.3105C61.0351 12.7473 61.0853 12.1702 61.1573 11.5949C61.3031 10.4323 61.5402 9.23276 61.8814 7.92675L61.8868 7.88441C61.8868 7.63398 61.7193 7.47852 61.4495 7.47852H60.7193C60.5905 7.47852 60.3606 7.53235 60.2711 7.89167C60.2626 7.92434 60.2535 7.957 60.2445 7.98906L60.2281 8.04774C59.8525 9.43238 59.5966 10.7094 59.4472 11.9518C59.3704 12.5912 59.3226 13.224 59.3051 13.8313L59.3032 13.8972C59.2887 14.3999 59.27 15.026 59.495 15.5069C59.6117 15.7568 59.8089 15.9298 60.0364 15.9824C60.086 15.9939 60.1374 15.9993 60.1906 15.9993C60.3352 15.9993 60.4907 15.957 60.648 15.8735C60.8113 15.787 60.9244 15.6848 60.9934 15.5608C61.1234 15.3273 61.075 15.0599 61.0272 14.879C60.9256 14.4949 60.9546 14.0896 60.9855 13.6607C60.994 13.5434 61.0024 13.4266 61.0079 13.3099V13.3105Z" fill="#200C32"/>
<path d="M69.2854 14.8108C68.6835 14.6753 68.4325 14.5071 68.4325 13.8157C68.4325 13.0493 68.6508 12.1413 68.8825 11.1801C69.1214 10.1874 69.3689 9.16148 69.3689 8.25955C69.3689 7.2802 68.7301 6.64746 67.741 6.64746C66.1429 6.64746 65.1671 7.66492 64.4176 8.93222C64.5011 8.30613 64.5435 7.78893 64.5435 7.38666C64.5435 6.87733 64.2041 6.82228 64.0583 6.82228H63.4867C63.1727 6.82228 62.9858 7.0098 62.9858 7.32315V7.39997C62.987 7.72118 62.9888 8.20753 62.8285 9.46091C62.6561 10.8516 62.3827 12.209 62.1184 13.5217C61.9944 14.1363 61.8667 14.7714 61.7506 15.4036L61.7476 15.4338C61.7476 15.6226 61.8667 15.824 62.2012 15.824H62.8364C63.0911 15.824 63.2865 15.6855 63.3482 15.4598C63.4359 15.1181 63.5381 14.5131 63.6676 13.7479C63.7734 13.1212 63.8932 12.4117 64.0299 11.7057C64.4848 10.6399 65.6934 8.20511 67.2335 8.20511C67.5426 8.20511 67.669 8.34061 67.669 8.6721C67.669 9.47664 67.447 10.3405 67.2123 11.2557C66.9764 12.1758 66.732 13.1273 66.732 14.0214C66.732 15.3522 67.4047 15.9988 68.7887 15.9988C69.3664 15.9988 69.5915 15.8361 69.5915 15.4181C69.5915 15.1967 69.5915 14.893 69.286 14.8102L69.2854 14.8108Z" fill="#200C32"/>
<defs>
<linearGradient id="paint0_linear_269_8179" x1="15.4179" y1="-3.03727" x2="10.1752" y2="12.4304" gradientUnits="userSpaceOnUse">
<stop offset="0.07" stop-color="#FFC700"/>
<stop offset="0.34" stop-color="#FF4900"/>
<stop offset="0.37" stop-color="#F5470A"/>
<stop offset="0.52" stop-color="#C6403F"/>
<stop offset="0.67" stop-color="#A13B69"/>
<stop offset="0.8" stop-color="#863788"/>
<stop offset="0.91" stop-color="#76349A"/>
<stop offset="0.99" stop-color="#7134A1"/>
</linearGradient>
<linearGradient id="paint1_linear_269_8179" x1="13.8" y1="-0.559939" x2="11.0059" y2="14.6736" gradientUnits="userSpaceOnUse">
<stop offset="0.07" stop-color="#FFC700"/>
<stop offset="0.34" stop-color="#FF4900"/>
<stop offset="0.37" stop-color="#F5470A"/>
<stop offset="0.52" stop-color="#C6403F"/>
<stop offset="0.67" stop-color="#A13B69"/>
<stop offset="0.8" stop-color="#863788"/>
<stop offset="0.91" stop-color="#76349A"/>
<stop offset="0.99" stop-color="#7134A1"/>
</linearGradient>
<linearGradient id="paint2_linear_269_8179" x1="13.1344" y1="1.87535" x2="10.9754" y2="13.6458" gradientUnits="userSpaceOnUse">
<stop offset="0.07" stop-color="#FFC700"/>
<stop offset="0.34" stop-color="#FF4900"/>
<stop offset="0.37" stop-color="#F5470A"/>
<stop offset="0.52" stop-color="#C6403F"/>
<stop offset="0.67" stop-color="#A13B69"/>
<stop offset="0.8" stop-color="#863788"/>
<stop offset="0.91" stop-color="#76349A"/>
<stop offset="0.99" stop-color="#7134A1"/>
</linearGradient>
</defs>
</svg>
