<svg width="285" height="66" viewBox="0 0 285 66" fill="none" xmlns="http://www.w3.org/2000/svg">
<path d="M84.86 28.4965C81.6519 28.769 78.5751 28.3132 77.7452 28.1819C74.9111 27.7286 72.5899 26.9581 70.8954 26.2719C70.7616 23.5791 70.0333 16.2784 64.556 9.75071C64.0382 9.13386 54.783 -1.53594 41.2643 0.188274C39.4286 0.421141 30.6316 1.54584 25.4243 9.10165C23.0486 12.5476 22.3128 16.0357 22.0527 18.1538C23.3929 16.2041 25.8603 13.1818 29.8562 10.9943C38.564 6.23045 51.4733 7.09998 57.7954 14.688C60.1364 17.4997 61.0357 20.584 61.4246 22.603C60.5749 22.1596 59.7202 21.6988 58.8606 21.2355C52.2214 17.6533 44.6953 13.5955 35.6928 16.0381C31.9718 17.0464 28.355 19.0828 25.511 21.7682C24.582 22.6451 23.7521 23.5716 23.0287 24.5378C22.3921 24.02 21.4656 23.3561 20.2517 22.7715C19.3549 22.3379 14.2368 19.8705 8.51416 22.2636C7.87006 22.5337 2.59091 24.845 0.720536 30.7484C0.445554 31.613 -1.83605 39.2481 3.48274 43.8708C7.03273 46.955 12.4506 47.3836 16.8999 44.8567C10.1641 44.3192 5.87087 39.7163 6.14585 35.7799C6.32422 33.2381 8.45471 30.2752 11.5712 29.5643C13.9791 29.0143 16.6571 29.8789 18.0939 31.6105C19.0948 32.817 19.3772 34.1027 19.4119 35.3042C19.511 38.7997 20.7645 42.3447 23.108 45.7089C25.4639 49.0905 28.8975 52.1698 32.5293 54.1516C35.1478 55.581 38.014 56.5397 40.9967 56.9956C44.574 57.5307 48.9514 57.0501 50.0191 56.842C53.1628 56.2524 56.1182 55.1054 58.7268 53.4505C64.6972 49.6578 68.9235 43.0012 70.4123 35.0911C71.7575 35.4801 73.6849 35.9235 76.0259 36.0796C78.4611 36.2406 85.3555 36.6989 91.6132 32.2348C96.1392 29.0069 98.2127 24.7112 99.0947 22.4668C96.7561 24.3198 91.576 27.9193 84.86 28.4941V28.4965ZM61.9077 32.8071C60.9738 38.6312 58.1026 43.457 54.0249 46.0458C49.0381 49.2118 42.0892 49.3778 36.7382 46.4521C30.6589 43.1325 27.6613 37.3653 28.2732 33.7088C28.9322 29.7848 33.1114 25.8285 37.9942 24.5031C39.0867 24.2058 40.1619 24.0745 41.2296 24.0745C45.6442 24.0745 49.9101 26.3735 54.7012 28.9573C56.9977 30.196 59.3957 31.4891 61.9449 32.5891C61.9325 32.6634 61.9226 32.7377 61.9102 32.8096L61.9077 32.8071Z" fill="url(#paint0_linear_226_5554)"/>
<path d="M58.3484 60.6074H30.7065C29.3493 60.6074 28.249 61.7077 28.249 63.0649C28.249 64.4222 29.3493 65.5224 30.7065 65.5224H58.3484C59.7056 65.5224 60.8059 64.4222 60.8059 63.0649C60.8059 61.7077 59.7056 60.6074 58.3484 60.6074Z" fill="url(#paint1_linear_226_5554)"/>
<path d="M52.1099 55.7222H36.9438C35.5866 55.7222 34.4863 56.8224 34.4863 58.1797C34.4863 59.5369 35.5866 60.6372 36.9438 60.6372H52.1099C53.4672 60.6372 54.5674 59.5369 54.5674 58.1797C54.5674 56.8224 53.4672 55.7222 52.1099 55.7222Z" fill="url(#paint2_linear_226_5554)"/>
<path d="M127.344 36.2058C127.926 33.9266 128.582 31.3403 128.721 30.5055C129.078 28.4022 129.189 25.9745 127.302 23.9257C125.344 21.8027 122.144 21.1214 118.742 22.1074C117.296 22.5261 115.916 23.1454 114.583 23.7424C113.3 24.3172 111.972 24.9117 110.624 25.3056C108.226 26.0042 105.008 26.0438 103.16 24.057L101.934 22.7391L101.971 24.5401C102.008 26.3609 102.063 29.1108 103.735 30.9242C104.907 32.1975 106.817 32.8911 108.982 32.8193C112.073 32.7252 114.444 31.3676 116.954 29.9307C117.506 29.6137 118.069 29.2916 118.651 28.9795C119.277 28.6425 121.383 27.6219 122.245 28.6723C122.597 29.1405 122.156 31.8556 121.534 33.9167C120.016 33.7334 117.524 33.5129 116.795 33.5055C111.246 33.456 105.605 35.7425 101.694 39.6195C97.8066 43.4717 95.7529 48.6419 95.7529 54.5676C95.7529 60.0227 98.9412 65.5248 106.061 65.5248C109.284 65.5248 114.147 63.149 118.081 56.6659C118.267 61.2242 119.424 65.5248 125.562 65.5248C127.928 65.5248 128.85 64.8584 128.85 63.1466C128.85 62.2399 128.85 60.9963 127.599 60.6569C125.134 60.1019 124.106 59.4132 124.106 56.5817C124.106 50.0961 125.535 43.4841 126.779 38.4453C126.922 37.8656 127.123 37.0728 127.344 36.2083V36.2058ZM120.808 39.6492C120.479 41.1877 120.06 43.1076 119.706 44.6014C115.732 54.2505 111.36 59.1432 106.71 59.1432C103.96 59.1432 102.318 57.3546 102.318 54.362C102.318 49.3851 103.559 45.7979 106.108 43.3925C108.801 40.8532 112.983 39.6071 118.844 39.6071C119.478 39.6071 120.135 39.622 120.808 39.6517V39.6492Z" fill="#200C32"/>
<path d="M172.079 60.6544C169.614 60.0995 168.584 59.4108 168.584 56.5792C168.584 50.0936 170.013 43.4792 171.257 38.4428C171.398 37.8681 171.599 37.0803 171.819 36.2206C172.401 33.9341 173.063 31.3428 173.202 30.5055C173.558 28.4022 173.67 25.9745 171.782 23.9257C169.825 21.8027 166.627 21.1214 163.223 22.1074C161.776 22.5261 160.399 23.1454 159.063 23.7424C157.78 24.3172 156.452 24.9117 155.105 25.3056C152.707 26.0042 149.489 26.0438 147.641 24.057L146.414 22.7391L146.451 24.5401C146.489 26.3609 146.543 29.1108 148.215 30.9242C149.39 32.1975 151.297 32.8911 153.462 32.8193C156.554 32.7252 158.925 31.3676 161.434 29.9307C161.989 29.6137 162.552 29.2916 163.131 28.977C163.756 28.6401 165.864 27.6169 166.726 28.6698C167.078 29.138 166.637 31.8531 166.015 33.9143C164.496 33.7309 162.004 33.5105 161.276 33.503C155.727 33.4535 150.086 35.74 146.174 39.617C142.287 43.4693 140.233 48.6394 140.233 54.5652C140.233 60.0202 143.422 65.5223 150.542 65.5223C153.764 65.5223 158.627 63.1466 162.561 56.6634C162.747 61.2217 163.904 65.5223 170.043 65.5223C172.409 65.5223 173.33 64.8559 173.33 63.1441C173.33 62.2374 173.33 60.9938 172.079 60.6544ZM165.289 39.6492C164.959 41.1877 164.543 43.1076 164.187 44.6014C160.213 54.2505 155.84 59.1432 151.191 59.1432C148.441 59.1432 146.798 57.3546 146.798 54.362C146.798 49.3851 148.039 45.7979 150.589 43.3925C153.281 40.8532 157.461 39.6071 163.322 39.6071C163.956 39.6071 164.613 39.622 165.286 39.6517L165.289 39.6492Z" fill="#200C32"/>
<path d="M139.725 60.6624L139.678 60.6525C137.433 60.2041 136.071 59.674 136.071 56.1265C136.071 47.1016 137.614 36.9322 140.792 25.0337C141.855 21.0279 143.431 17.0468 144.803 14.8891L144.91 14.7206V14.52C144.91 13.7471 144.422 12.9221 143.052 12.9221H140.842C138.531 12.9221 136.358 16.6579 134.198 24.35C131.904 32.7629 129.169 45.1049 129.169 56.124C129.169 62.5353 131.867 65.5229 137.656 65.5229C140.022 65.5229 140.944 64.8565 140.944 63.1447C140.944 62.238 140.944 60.9944 139.722 60.6624H139.725Z" fill="#200C32"/>
<path d="M206.44 60.6619L206.298 60.6396C201.596 60.3671 200.769 59.1136 200.769 56.5793C200.769 49.675 202.719 41.4082 204.287 34.7641C204.631 33.3049 204.956 31.9251 205.238 30.6616V30.6567C206.167 26.3585 207.691 21.1537 209.898 14.7449L209.935 14.6359V14.5219C209.935 13.536 209.274 12.9241 208.208 12.9241H205.478C202.704 12.9241 201.356 18.2404 199.161 28.4444C197.692 27.6641 195.834 27.2256 193.909 27.2256C187.612 27.2256 182.202 30.3099 178.268 36.1415C174.841 41.22 172.877 48.0549 172.877 54.8898C172.877 61.7247 176.137 65.5224 181.82 65.5224C186.42 65.5224 190.994 62.2449 194.665 56.4208C194.657 56.609 194.655 56.7923 194.655 56.9707C194.655 62.8048 197.578 65.5249 203.858 65.5249C207.076 65.5249 207.666 64.7247 207.666 63.1467C207.666 62.24 207.666 60.9964 206.445 60.6644L206.44 60.6619ZM198.007 34.3058C197.283 37.2885 196.602 40.4817 195.941 43.5759L195.718 44.6114C191.506 54.9319 187.758 59.1433 182.791 59.1433C181.964 59.1433 179.447 59.1433 179.447 54.045C179.447 44.7204 182.112 33.6047 194.816 33.6047C196.193 33.6047 197.261 33.84 198.004 34.3058H198.007Z" fill="#200C32"/>
<path d="M240.716 60.6619L240.574 60.6396C235.872 60.3671 235.045 59.1136 235.045 56.5793C235.045 49.675 236.995 41.4082 238.563 34.7641C238.907 33.3049 239.232 31.9251 239.514 30.6616V30.6567C240.443 26.361 241.967 21.1562 244.174 14.7449L244.211 14.6359V14.5219C244.211 13.536 243.55 12.9241 242.484 12.9241H239.754C236.98 12.9241 235.632 18.2404 233.435 28.4444C231.966 27.6641 230.108 27.2256 228.183 27.2256C221.885 27.2256 216.475 30.3099 212.541 36.1415C209.115 41.22 207.15 48.0549 207.15 54.8898C207.15 61.7247 210.411 65.5224 216.093 65.5224C220.694 65.5224 225.267 62.2449 228.938 56.4208C228.931 56.609 228.928 56.7923 228.928 56.9707C228.928 62.8048 231.852 65.5249 238.132 65.5249C241.35 65.5249 241.939 64.7247 241.939 63.1467C241.939 62.24 241.939 60.9964 240.718 60.6644L240.716 60.6619ZM232.283 34.3058C231.562 37.2785 230.883 40.4594 230.224 43.5412L229.996 44.6114C225.785 54.9319 222.037 59.1433 217.07 59.1433C216.242 59.1433 213.725 59.1433 213.725 54.045C213.725 44.7204 216.391 33.6047 229.094 33.6047C230.472 33.6047 231.542 33.84 232.283 34.3058Z" fill="#200C32"/>
<path d="M251.66 25.4325C254.692 25.4325 257.157 22.9081 257.157 19.804C257.157 17.3316 255.512 15.6074 253.153 15.6074C250.26 15.6074 247.721 18.2061 247.721 21.169C247.721 23.5992 249.413 25.4325 251.657 25.4325H251.66Z" fill="#200C32"/>
<path d="M249.849 54.508C249.961 52.2017 250.166 49.8383 250.461 47.4824C251.058 42.721 252.029 37.8085 253.426 32.46L253.449 32.2866C253.449 31.2609 252.762 30.6243 251.657 30.6243H248.667C248.14 30.6243 247.198 30.8448 246.832 32.3163C246.797 32.4501 246.76 32.5838 246.723 32.7151L246.656 32.9554C245.117 38.626 244.069 43.8556 243.458 48.944C243.143 51.5625 242.947 54.1538 242.875 56.641L242.868 56.911C242.809 58.9697 242.732 61.5337 243.653 63.5032C244.131 64.5263 244.939 65.2348 245.87 65.4504C246.074 65.4974 246.284 65.5197 246.502 65.5197C247.094 65.5197 247.731 65.3463 248.375 65.0044C249.044 64.6502 249.507 64.2315 249.79 63.7237C250.322 62.7674 250.124 61.6724 249.928 60.9317C249.512 59.3586 249.631 57.6988 249.757 55.9424C249.792 55.4618 249.827 54.9837 249.849 54.5056V54.508Z" fill="#200C32"/>
<path d="M283.746 60.6547C281.281 60.0998 280.253 59.4111 280.253 56.5796C280.253 53.4408 281.147 49.7224 282.096 45.7859C283.074 41.7206 284.088 37.5191 284.088 33.8254C284.088 29.8146 281.472 27.2234 277.421 27.2234C270.876 27.2234 266.88 31.3902 263.811 36.5802C264.153 34.0162 264.326 31.8981 264.326 30.2507C264.326 28.1648 262.936 27.9393 262.339 27.9393H259.998C258.713 27.9393 257.947 28.7073 257.947 29.9905V30.3052C257.952 31.6206 257.959 33.6124 257.303 38.7454C256.597 44.4407 255.477 49.9998 254.395 55.3756C253.887 57.8925 253.364 60.4937 252.888 63.0825L252.876 63.2064C252.876 63.9793 253.364 64.8042 254.734 64.8042H257.335C258.378 64.8042 259.178 64.2369 259.431 63.3129C259.79 61.9132 260.209 59.4359 260.739 56.3021C261.172 53.7356 261.663 50.8297 262.223 47.9387C264.086 43.5737 269.035 33.6025 275.343 33.6025C276.609 33.6025 277.126 34.1574 277.126 35.515C277.126 38.8098 276.217 42.3474 275.256 46.0956C274.29 49.8636 273.289 53.7604 273.289 57.4218C273.289 62.8719 276.044 65.5202 281.712 65.5202C284.078 65.5202 284.999 64.8538 284.999 63.142C284.999 62.2353 284.999 60.9917 283.748 60.6523L283.746 60.6547Z" fill="#200C32"/>
<defs>
<linearGradient id="paint0_linear_226_5554" x1="63.1414" y1="-12.4386" x2="41.6705" y2="50.9063" gradientUnits="userSpaceOnUse">
<stop offset="0.07" stop-color="#FFC700"/>
<stop offset="0.34" stop-color="#FF4900"/>
<stop offset="0.37" stop-color="#F5470A"/>
<stop offset="0.52" stop-color="#C6403F"/>
<stop offset="0.67" stop-color="#A13B69"/>
<stop offset="0.8" stop-color="#863788"/>
<stop offset="0.91" stop-color="#76349A"/>
<stop offset="0.99" stop-color="#7134A1"/>
</linearGradient>
<linearGradient id="paint1_linear_226_5554" x1="56.5152" y1="-2.29166" x2="45.0724" y2="60.0946" gradientUnits="userSpaceOnUse">
<stop offset="0.07" stop-color="#FFC700"/>
<stop offset="0.34" stop-color="#FF4900"/>
<stop offset="0.37" stop-color="#F5470A"/>
<stop offset="0.52" stop-color="#C6403F"/>
<stop offset="0.67" stop-color="#A13B69"/>
<stop offset="0.8" stop-color="#863788"/>
<stop offset="0.91" stop-color="#76349A"/>
<stop offset="0.99" stop-color="#7134A1"/>
</linearGradient>
<linearGradient id="paint2_linear_226_5554" x1="53.7896" y1="7.67956" x2="44.948" y2="55.8832" gradientUnits="userSpaceOnUse">
<stop offset="0.07" stop-color="#FFC700"/>
<stop offset="0.34" stop-color="#FF4900"/>
<stop offset="0.37" stop-color="#F5470A"/>
<stop offset="0.52" stop-color="#C6403F"/>
<stop offset="0.67" stop-color="#A13B69"/>
<stop offset="0.8" stop-color="#863788"/>
<stop offset="0.91" stop-color="#76349A"/>
<stop offset="0.99" stop-color="#7134A1"/>
</linearGradient>
</defs>
</svg>
