<svg width="65" height="53" viewBox="0 0 65 53" fill="none" xmlns="http://www.w3.org/2000/svg">
<path d="M3.24145 30.9481L4.91072 42.7882L5.63705 47.9397C6.03637 50.7724 8.46044 52.8784 11.3213 52.8784H53.6757C56.5365 52.8784 58.9606 50.7724 59.3599 47.9397L62.0604 28.7852H2.93652L3.24145 30.9478V30.9481ZM41.7758 34.0445C41.7758 32.0818 43.3714 30.4989 45.3341 30.4989C46.3219 30.4989 47.2082 30.8915 47.8542 31.5375C48.4999 32.1707 48.8925 33.057 48.8925 34.0448V45.1125C48.8925 47.0751 47.2968 48.6708 45.3341 48.6708C44.3464 48.6708 43.4598 48.2782 42.8141 47.6325C42.168 46.9865 41.7758 46.1002 41.7758 45.1125V34.0448V34.0445ZM28.948 34.0445C28.948 32.0818 30.5308 30.4989 32.4938 30.4989C33.4816 30.4989 34.3679 30.8915 35.0136 31.5375C35.6596 32.1707 36.0522 33.057 36.0522 34.0448V45.1125C36.0522 47.0751 34.4565 48.6708 32.4938 48.6708C31.5058 48.6708 30.6195 48.2782 29.9862 47.6325C29.3406 46.9865 28.948 46.1002 28.948 45.1125V34.0448V34.0445ZM16.1077 34.0445C16.1077 32.0818 17.703 30.4989 19.6657 30.4989C20.6406 30.4989 21.5273 30.8915 22.1733 31.5375C22.819 32.1707 23.2116 33.057 23.2116 34.0448V45.1125C23.2116 47.0751 21.6287 48.6708 19.6657 48.6708C18.6908 48.6708 17.7917 48.2782 17.146 47.6325C16.5127 46.9865 16.1077 46.1002 16.1077 45.1125V34.0448V34.0445Z" fill="#542E7C"/>
<path d="M32.5026 17.5349V17.805L30.6094 19.6931C29.6335 20.669 29.6335 22.2499 30.6052 23.2217C31.5811 24.1976 33.1621 24.1976 34.1383 23.2217L50.6781 6.72576C51.1683 6.23557 51.407 5.60172 51.407 4.95922C51.407 4.31673 51.1641 3.68671 50.6742 3.19716C49.7025 2.22542 48.1254 2.22126 47.1495 3.19716L32.7737 17.5349H32.503H32.5026Z" fill="#542E7C"/>
<path d="M30.1835 17.5365C29.0156 11.6254 23.7992 7.14844 17.5403 7.14844C11.2815 7.14844 6.06534 11.6254 4.89746 17.5365H30.1832H30.1835Z" fill="#542E7C"/>
<path d="M52.451 8.49435L43.3848 17.5354H58.3109V7.14697H53.3879C53.1489 7.63652 52.8465 8.0976 52.4507 8.49435H52.451Z" fill="#542E7C"/>
<path d="M31.9854 14.7857L38.3233 8.46538V0H25.394V6.81883C28.3992 8.60968 30.7532 11.4068 31.9854 14.7854V14.7857Z" fill="#542E7C"/>
<path d="M0 20.0391V26.2823H31.1261C30.2686 26.0621 29.4764 25.634 28.8342 24.9915C27.4961 23.6528 27.1016 21.7406 27.6052 20.0391H0Z" fill="#542E7C"/>
<path d="M35.9048 24.9942C35.2652 25.6348 34.4736 26.062 33.6167 26.2818H64.9997V20.0386H40.8739L35.9048 24.9939V24.9942Z" fill="#542E7C"/>
</svg>
