<svg width="42" height="63" viewBox="0 0 42 63" fill="none" xmlns="http://www.w3.org/2000/svg">
<g clip-path="url(#clip0_269_8142)">
<path d="M29.0833 14.579C29.0833 6.52624 22.5734 0 14.5424 0C6.50986 0 0 6.52624 0 14.579V30.2198H29.0833V14.579ZM4.72535 14.5052V25.1035L4.73418 26.1876H3.64405V14.5052C3.64405 11.5865 4.77831 8.84324 6.83646 6.77992C7.87509 5.73867 9.08733 4.9334 10.407 4.39065L10.9733 5.33751C7.32047 6.77107 4.72535 10.3402 4.72535 14.5052Z" fill="#542E7C"/>
<path d="M18.7896 51.2853C18.7896 45.2871 23.2854 40.3433 29.0833 39.6531V32.7803H0V48.4211C0 56.4724 6.50986 63.0001 14.5424 63.0001C17.6951 63.0001 20.6124 61.9942 22.9956 60.2849C20.4255 58.136 18.7896 54.9017 18.7896 51.2853ZM14.5424 61.0046C12.8476 61.0046 11.2043 60.6728 9.65813 60.0165C8.16344 59.3823 6.82175 58.4752 5.66836 57.319C4.51498 56.1627 3.61021 54.8176 2.97762 53.3191C2.32442 51.7691 1.99194 50.1216 1.99194 48.4226V34.7772H27.0928V37.9983C21.1155 39.5189 16.7991 44.9478 16.7991 51.2868C16.7991 54.4371 17.8687 57.4443 19.7973 59.8542C18.1629 60.6123 16.3798 61.0046 14.5424 61.0046Z" fill="#542E7C"/>
<path d="M21.3538 48.3486C19.7046 53.6699 22.4542 59.3097 27.5385 61.3288L33.7865 41.1675C28.4565 39.9434 23.003 43.0273 21.3538 48.3486Z" fill="#542E7C"/>
<path d="M35.3374 41.6499L29.0894 61.8112C34.4194 63.0353 39.8729 59.9514 41.5221 54.6301C43.1713 49.3088 40.4217 43.669 35.3374 41.6499Z" fill="#542E7C"/>
</g>
<defs>
<clipPath id="clip0_269_8142">
<rect width="42" height="63" fill="white"/>
</clipPath>
</defs>
</svg>
