<svg width="194" height="194" viewBox="0 0 194 194" fill="none" xmlns="http://www.w3.org/2000/svg">
<path d="M97 0C150.567 0 194 43.4329 194 97C194 150.567 150.567 194 97 194C43.4329 194 0 150.566 0 97C0 43.4339 43.4329 0 97 0ZM97 12.7948C50.4957 12.7948 12.7948 50.4957 12.7948 97C12.7948 143.504 50.4957 181.205 97 181.205C143.504 181.205 181.205 143.504 181.205 97C181.205 50.4957 143.503 12.7948 97 12.7948Z" fill="white" fill-opacity="0.56"/>
<path fill-rule="evenodd" clip-rule="evenodd" d="M143.035 101.308L75.048 143.763C71.6545 145.887 67.27 143.447 67.27 139.446V54.5525C67.27 50.5512 71.6545 48.1112 75.048 50.236L143.035 92.6907C146.218 94.6726 146.218 99.327 143.035 101.309V101.308Z" fill="white" fill-opacity="0.56"/>
</svg>
