<svg width="93" height="70" viewBox="0 0 93 70" fill="none" xmlns="http://www.w3.org/2000/svg">
<g clip-path="url(#clip0_269_8114)">
<path d="M11.8126 18.6896C12.9001 14.2632 11.7193 0 11.7193 0H10.1691V14.2632H8.72046V0H6.92279V14.2632H5.35236V0H3.55469V14.2632H2.10601V0H0.551815C0.551815 0 -0.624989 14.2632 0.458482 18.6896C1.54601 23.1119 4.52049 24.663 4.52049 24.663C4.52049 24.663 -0.872524 70 6.13149 70C13.1355 70 7.74249 24.663 7.74249 24.663C7.74249 24.663 10.717 23.116 11.8045 18.6896H11.8126Z" fill="#542E7C"/>
<path d="M92.4159 37.7277C92.4159 37.7277 92.4159 35.3424 92.4159 34.5446C92.3956 26.6354 92.2698 3.74214 92.2576 1.34469C92.2576 1.20295 92.2089 1.0612 92.1156 0.943761C91.6368 0.332249 89.9852 -1.30385 87.9197 2.0048C85.4565 5.94521 81.5812 27.255 86.0165 33.7022C86.2884 34.0951 87.1974 34.9333 87.3719 35.3707C87.6032 35.9579 87.5585 37.8249 87.5585 37.8249C87.5585 37.8249 83.809 69.9961 89.6849 69.9961C94.8791 69.9961 92.42 37.7277 92.42 37.7277H92.4159Z" fill="#542E7C"/>
<path d="M53.7572 54.0003C64.6988 50.3975 70.6421 38.6249 67.032 27.7054C63.4219 16.786 51.6255 10.8547 40.6839 14.4575C29.7424 18.0603 23.7991 29.8329 27.4092 40.7524C31.0193 51.6718 42.8157 57.6031 53.7572 54.0003Z" fill="#542E7C"/>
<path d="M47.2225 1.88721C29.3229 1.88721 14.8076 16.3691 14.8076 34.2366C14.8076 52.1042 29.3188 66.5861 47.2225 66.5861C65.1261 66.5861 79.6374 52.1042 79.6374 34.2366C79.6374 16.3691 65.1221 1.88721 47.2225 1.88721ZM64.2212 51.197C59.6804 55.7287 53.6462 58.2233 47.2225 58.2233C40.7988 58.2233 34.7646 55.7287 30.2238 51.197C25.6829 46.6653 23.1832 40.6434 23.1832 34.2326C23.1832 27.8218 25.6829 21.7998 30.2238 17.2682C34.7646 12.7365 40.7988 10.2418 47.2225 10.2418C53.6462 10.2418 59.6804 12.7365 64.2212 17.2682C68.7621 21.7998 71.2618 27.8218 71.2618 34.2326C71.2618 40.6434 68.7621 46.6653 64.2212 51.197Z" fill="#542E7C"/>
</g>
<defs>
<clipPath id="clip0_269_8114">
<rect width="93" height="70" fill="white"/>
</clipPath>
</defs>
</svg>
