<svg width="19" height="19" viewBox="0 0 19 19" fill="none" xmlns="http://www.w3.org/2000/svg">
<path d="M4.20737 7.06152H0.823567C0.368724 7.06152 0 7.42625 0 7.87615V17.4155C0 17.8654 0.368724 18.2301 0.823567 18.2301H4.20737C4.66222 18.2301 5.03094 17.8654 5.03094 17.4155V7.87615C5.03094 7.42625 4.66222 7.06152 4.20737 7.06152Z" fill="#542E7C"/>
<path d="M17.3879 7.06148H11.4681C11.4681 7.06148 12.7459 5.57522 13.3008 3.4201C13.5666 2.38867 13.2943 0.91533 12.7412 0.316583C12.2133 -0.25541 11.2517 -0.0146194 11.0567 0.736351L10.5372 2.74109C10.3432 3.49114 9.94404 4.17292 9.38443 4.71447L6.95663 7.06148C6.95663 7.06148 6.71693 7.29581 6.7188 7.29581C6.65537 7.35117 6.59941 7.4139 6.55278 7.48402C6.45484 7.62886 6.39795 7.8023 6.39795 7.99051V17.3518C6.39795 17.8648 6.81859 18.2808 7.33717 18.2808H13.2943C15.1615 18.2808 16.7956 17.0391 17.2769 15.2539L18.9445 9.06346C19.2169 8.05232 18.4465 7.06148 17.3888 7.06148H17.3879Z" fill="#542E7C"/>
</svg>
