<svg width="511" height="235" viewBox="0 0 511 235" fill="none" xmlns="http://www.w3.org/2000/svg">
<g clip-path="url(#clip0_269_8467)">
<path d="M342.775 21.9338C342.324 16.3375 341.827 4.73865 342.595 2.12102C348.417 2.57234 379.196 4.28734 392.781 3.88116L392.014 19.271C392.014 19.271 382.355 19.6772 374.277 19.948C374.277 25.5894 374.457 42.9199 374.773 50.3667C375.134 59.3478 376.398 84.3959 376.398 84.3959C376.398 84.3959 368.139 85.6144 362.362 85.8401C362.137 79.3411 361.821 55.1506 361.685 46.2597C361.595 39.2192 361.46 26.9434 361.098 20.4444C360.647 20.4444 360.286 20.4896 359.97 20.5347C355.638 20.9409 345.618 22.0692 342.73 22.024L342.775 21.9338ZM138.916 20.4444C139.187 20.4444 139.593 20.3993 140.044 20.3542C140.405 26.8531 140.541 39.0838 140.631 46.1694C140.766 55.1055 141.082 79.296 141.308 85.7498C147.039 85.479 155.344 84.3056 155.344 84.3056C155.344 84.3056 154.035 59.2576 153.719 50.2764C153.448 42.8297 153.268 25.4992 153.223 19.8577C161.301 19.6321 170.959 19.1808 170.959 19.1808L171.726 3.79089C158.142 4.19708 127.362 2.52721 121.54 2.03076C120.818 4.64839 121.315 16.2472 121.721 21.8435C124.564 21.8435 134.628 20.7152 138.961 20.3542L138.916 20.4444ZM186.53 82.6357C186.53 82.6357 191.494 10.8765 192.352 6.0926C188.876 3.38471 177.413 5.64129 177.413 5.64129C176.871 7.40142 172.764 77.0845 172.223 84.0799C174.931 84.5764 186.53 82.6357 186.53 82.6357ZM197.451 82.1844C202.867 83.9897 210.81 81.1012 210.81 81.1012C210.81 81.1012 211.081 71.8944 211.487 64.6734C211.939 57.4974 213.699 23.739 213.699 23.739C213.699 23.739 217.084 36.0148 219.295 48.1552C221.461 60.2956 224.395 76.0465 224.395 76.0465C224.395 76.0465 227.644 76.4076 231.661 75.9562L243.35 23.4231C243.35 23.4231 244.524 76.3624 244.524 84.1251C247.412 85.2082 250.571 84.0348 254.904 83.1773C255.807 80.2889 253.685 51.2242 253.55 38.9032C253.415 26.5372 253.956 7.53681 254.407 3.6555C248.585 2.52721 237.438 3.47497 234.82 4.28734C231.977 9.20668 225.884 43.0553 225.884 43.0553C225.884 43.0553 221.687 12.6367 220.514 6.18286C215.414 2.70774 200.159 3.88116 200.159 3.88116C199.618 12.9526 198.219 71.4882 197.361 82.2295L197.451 82.1844ZM260.681 83.4932C262.305 84.0348 273.363 82.7711 279.907 82.1844C286.496 81.5977 302.608 81.2818 305.632 80.7853C306.128 78.9801 306.489 70.5405 306.399 67.5618C303.285 66.9299 278.282 68.2388 273.814 69.006C273.814 69.006 273.814 59.0319 274.175 51.8109C274.22 50.4569 274.626 42.7846 274.717 40.4377C279.14 40.8439 294.62 40.2572 294.62 40.2572L296.199 29.7415L274.987 29.1548C275.213 20.5798 274.897 19.7223 274.987 17.7365C276.973 17.0144 298.862 18.3233 304.188 18.0976C305.226 15.9764 305.587 7.44655 305.722 4.69352C292.273 2.25642 263.073 4.87405 263.073 4.87405C262.802 7.17576 262.035 16.879 262.215 19.1356C262.396 21.3471 261.132 80.7853 260.545 83.4029L260.681 83.4932ZM391.698 51.4047C390.705 39.9864 392.961 13.1331 404.966 6.45365C416.971 -0.225816 436.152 -0.632 442.38 19.3613C444.05 24.6868 448.879 39.5351 441.613 61.2434C434.347 82.9516 425.682 87.4197 412.458 85.2082C399.235 82.9968 394.36 73.2935 391.698 51.3596V51.4047ZM413.045 74.2864C425.14 76.9943 426.268 69.367 427.893 64.4928C429.473 59.6186 431.684 39.6705 431.594 32.4043C431.504 25.2284 428.976 17.0144 422.523 16.0667C409.705 14.3065 407.99 25.4089 407.133 29.6061C405.372 38.4971 403.658 72.2103 413.09 74.3315L413.045 74.2864ZM67.2469 83.8091C85.9314 83.2224 114.5 81.011 119.554 80.3791C117.704 72.6165 118.336 45.0411 118.336 45.0411C86.8791 46.034 14.3527 44.1836 0.813258 43.1005C-0.901741 49.1932 0.27168 76.0014 1.26457 88.9993C7.89891 89.0895 24.1914 85.9754 34.1655 85.0728C34.8425 85.0277 35.7 84.9374 36.738 84.8923C37.5503 99.9211 37.8211 128.264 38.0919 144.646C38.4078 165.272 39.0397 219.971 39.5813 235C52.8499 234.413 72.0309 232.924 72.0309 232.924C72.0309 232.924 69.0522 174.93 68.2849 154.214C67.608 136.929 67.2469 96.8522 67.1566 83.8543L67.2469 83.8091ZM174.886 152.68C178.722 148.257 185.627 128.535 180.076 113.009C174.389 97.0778 155.208 93.9186 140.315 99.7857C130.341 103.712 123.526 113.596 119.193 119.779C120.051 104.886 119.284 98.4769 119.284 98.4769C114.545 97.8902 100.058 96.5814 94.1453 97.8902C91.8887 103.622 91.6631 131.513 92.2047 146.452C92.7462 161.345 96.8532 221.28 97.2594 232.608C102.179 234.142 121.269 233.42 127.227 230.487C124.699 216.722 117.298 186.438 117.569 165.362C122.804 144.646 131.198 132.551 145.144 129.798C161.436 126.594 151.056 149.295 151.056 149.295C151.056 149.295 167.574 152.003 174.931 152.77L174.886 152.68ZM255.265 158.728C255.807 175.562 256.619 227.734 256.619 227.734C256.619 227.734 239.514 232.743 224.26 229.99C224.169 228.32 224.35 222.634 224.26 220.513C207.2 237.211 185.807 235.271 176.465 228.32C160.714 216.631 164.957 181.248 170.598 171.003C176.104 160.984 180.978 156.922 193.706 153.357C203.093 150.694 217.174 150.153 224.395 150.062C224.395 149.115 224.124 147.715 223.853 144.015C222.861 131.062 222.409 124.518 188.967 122.622C188.335 115.582 187.116 103.351 186.349 99.1539C186.349 99.1539 237.348 91.4815 248.089 115.221C254.949 130.385 254.588 141.848 255.175 158.637L255.265 158.728ZM224.35 198.759C224.395 194.381 225.252 177.051 225.298 172.583C216.858 172.944 209.411 174.433 206.703 175.246C197.632 177.999 194.383 189.643 194.157 197.496C193.931 205.348 197.406 206.928 208.193 204.401C214.556 202.911 220.559 200.474 224.395 198.759H224.35ZM341.872 106.104C337.811 114.318 311.725 185.175 306.309 196.277C296.29 136.026 281.938 102.674 281.938 102.674C274.717 101.591 253.505 105.517 253.505 105.517C253.505 105.517 266.006 151.055 270.203 165.226C274.356 179.443 279.455 212.569 284.691 226.064C289.61 235.271 316.418 229.449 316.418 229.449C316.418 229.449 327.701 201.738 335.058 180.887C341.376 162.925 360.331 115.537 362.949 109.354C359.429 106.601 351.846 105.021 341.872 106.104ZM507.415 194.788C496.448 197.947 483.901 197.631 484.082 197.586L492.973 44.9509L456.732 47.388C456.732 47.388 457.861 90.4886 457.725 106.916C457.59 123.344 460.388 208.643 460.884 234.413C477.357 236.489 506.738 231.48 506.738 231.48C506.738 231.48 507.415 202.415 507.37 194.788H507.415ZM445.72 114.544C456.461 131.468 451.497 154.395 450.594 165.136C443.644 170.01 433.309 170.462 418.596 171.906C406.365 173.079 388.764 174.885 378.655 174.433C378.248 177.999 378.158 178.315 378.068 181.97C377.752 198.443 395.444 200.429 404.154 200.7C416.114 201.061 418.325 198.94 419.318 195.555C428.344 193.885 442.877 192.712 442.877 192.712C442.877 192.712 442.606 196.954 442.155 204.536C442.155 204.762 442.11 204.987 442.064 205.213C441.478 213.201 440.485 222.995 440.485 222.995C440.485 222.995 432.903 232.427 408.712 232.518C384.477 232.653 354.735 232.382 352.208 190.184C350.854 170.868 351.26 113.641 391.156 103.486C408.667 98.4769 434.934 97.5743 445.675 114.499L445.72 114.544ZM410.292 119.96C396.798 118.335 389.441 129.302 386.914 135.349C386.056 137.425 383.258 147.038 382.22 155.343C392.691 156.336 416.655 157.644 423.425 151.822C425.321 137.155 423.154 121.494 410.292 119.96Z" fill="white"/>
<path d="M74.7374 230.216C72.9773 180.842 69.6376 131.829 70.1792 82.1846C87.0584 82.5457 104.93 80.2439 121.9 78.7095C122.261 78.7095 122.396 78.3484 122.396 78.0776C122.396 77.9874 122.441 77.9422 122.396 77.852C119.643 66.8399 120.681 54.3384 120.772 42.9653C120.772 42.5591 120.411 42.4237 120.095 42.5591C81.1913 42.9653 42.6038 41.837 3.83577 40.6185C3.92603 39.9866 2.93313 39.9866 2.84287 40.6185C0.18011 55.7375 2.0305 71.669 2.75261 86.7429C2.21103 86.9234 2.1659 87.7358 2.75261 87.6907C2.75261 87.6907 2.75261 87.6907 2.79774 87.6907C2.97827 88.1871 3.7455 88.142 3.7455 87.6004C10.1091 87.0588 16.4726 85.7049 22.791 85.3438C28.0263 85.073 33.4421 83.2226 38.6322 83.2226C40.2569 132.912 39.6702 182.828 41.2498 232.518C40.618 232.563 40.5277 233.556 41.2047 233.511C41.3401 233.511 41.4304 233.511 41.5657 233.511C41.7463 233.601 41.9719 233.601 42.1525 233.511C52.7132 232.789 63.3192 232.518 73.8348 231.344C74.0605 231.57 74.4215 231.48 74.602 231.209C75.0985 231.028 75.1436 230.352 74.6472 230.306L74.7374 230.216ZM39.7605 83.1775C39.7605 83.1775 40.2118 83.1775 40.4375 83.1775C41.0693 83.2226 41.1144 82.2297 40.4826 82.1846C40.2118 82.1846 39.9861 82.1846 39.7154 82.1846C39.7154 82.0492 39.7154 81.9138 39.7154 81.7784C39.7154 81.1466 38.6773 81.1466 38.7225 81.7784C38.7225 81.9138 38.7225 82.0492 38.7225 82.1395C33.5323 82.1395 28.1617 83.8545 22.9715 84.2607C16.5629 84.7571 10.1993 85.9757 3.79063 86.5172C3.06853 71.8044 1.35353 56.3694 3.7455 41.5662C42.4684 42.7848 80.9656 43.9131 119.824 43.5069C119.734 54.6995 118.786 66.885 121.403 77.7166C104.479 79.2511 86.607 81.5528 69.773 81.1466C69.6827 81.1466 69.6376 81.1917 69.5924 81.2368C69.4119 81.282 69.2765 81.4174 69.2765 81.643C68.6898 131.423 72.0295 180.617 73.8348 230.216C63.4094 231.39 52.8938 231.66 42.4684 232.382C40.9339 182.693 41.4755 132.822 39.8507 83.1775H39.7605ZM176.509 151.055C176.509 151.055 176.599 151.055 176.644 150.965C183.414 142.119 185.626 132.145 184.543 121.539C183.279 108.812 181.338 103.126 170.461 97.4842C151.732 87.7809 132.912 99.2895 121.629 115.762C121.088 109.67 122.171 103.081 122.667 97.0329C122.667 96.6718 122.351 96.5364 122.08 96.5816C119.192 94.9117 115.627 95.0471 112.242 95.1374C107.097 95.2728 101.952 95.7692 96.8068 95.5887C96.8068 94.9568 95.859 94.9568 95.8139 95.5887C90.4883 141.352 97.8899 185.536 98.8377 230.893C98.8377 231.435 99.5598 231.48 99.7855 231.074C104.75 232.112 110.662 231.705 115.762 231.119C119.598 230.667 126.233 230.622 129.617 228.727C129.978 228.546 129.933 228.14 129.708 227.914C124.653 207.56 118.109 182.512 121.133 161.3C122.577 151.823 126.594 143.383 133.408 136.207C136.613 132.822 141.532 128.851 146.271 128.309C159.133 126.82 154.62 138.96 153.131 145.414C153.086 145.64 153.131 145.775 153.311 145.91C153.176 146.181 153.266 146.632 153.673 146.678C161.255 147.58 168.431 150.83 176.103 151.371C176.374 151.371 176.509 151.191 176.554 151.01L176.509 151.055ZM155.252 128.444C152.183 124.969 146.226 127.181 142.57 128.67C129.437 134.041 121.81 148.844 119.959 161.932C119.959 161.932 119.959 161.977 119.959 162.022C117.026 183.685 123.434 207.65 128.579 228.185C125.601 229.539 120.411 229.584 117.387 229.99C111.881 230.758 105.021 231.344 99.7855 230.171C98.7926 185.491 91.6618 141.758 96.7165 96.6718C100.733 96.8072 104.705 96.5816 108.721 96.3559C112.828 96.1303 118.019 95.4533 121.584 97.5745C121.042 103.983 119.959 110.753 120.726 117.071C120.726 117.116 120.636 117.162 120.636 117.207C120.456 117.523 120.636 117.793 120.862 117.884C120.862 118.064 120.862 118.29 120.952 118.47C121.042 119.102 122.035 118.831 121.945 118.2C121.9 117.884 121.855 117.568 121.81 117.252C132.235 101.456 150.423 89.8118 168.882 97.6196C187.792 105.608 187.521 135.079 175.877 150.378C168.431 149.792 161.39 146.723 154.034 145.775C155.072 141.307 158.637 132.281 155.297 128.49L155.252 128.444ZM257.069 140.63C257.069 140.63 257.204 140.449 257.204 140.314C255.986 120.366 251.337 103.803 231.073 98.2063C219.655 95.0471 201.286 93.5126 189.191 96.5816C188.965 96.3559 188.514 96.5364 188.379 96.8975C188.198 97.078 188.198 97.3488 188.379 97.5293C189.146 105.382 190.139 113.19 191.448 120.953C191.538 121.449 192.17 121.359 192.35 120.998C201.151 120.727 212.434 120.998 219.294 126.639C226.064 132.19 225.883 139.231 226.154 147.625C210.358 146.632 184.317 150.378 174.433 164.82C164.594 179.172 165.271 202.325 170.913 216.993C170.913 216.993 170.958 216.993 171.003 217.083C171.003 217.173 171.003 217.218 171.003 217.309C177.006 227.779 181.88 230.487 194.201 231.525C207.74 232.653 215.864 228.862 225.883 219.746C225.883 219.836 225.883 219.881 225.928 219.926C225.883 220.874 225.702 221.867 225.793 222.769C225.793 223.085 226.199 226.876 226.199 226.876C225.838 226.922 225.748 227.283 225.883 227.508C225.748 227.779 225.748 228.095 226.109 228.185C236.579 230.352 247.682 229.9 258.107 226.199C258.333 226.515 258.964 226.425 259.01 225.883C261.492 197.586 258.152 168.747 257.024 140.675C257.024 140.675 257.024 140.675 257.024 140.63H257.069ZM258.107 225.161C248.043 228.772 237.256 229.313 227.102 227.328C227.372 226.741 227.147 225.838 227.102 225.297C226.966 223.988 226.786 222.634 226.786 221.28C226.786 220.423 227.011 219.475 227.011 218.617C227.011 218.617 227.011 218.527 227.011 218.482C227.011 218.482 227.011 218.392 227.011 218.347C226.966 217.85 226.289 217.94 226.109 218.347C226.064 218.347 226.018 218.347 225.928 218.392C216.857 226.786 208.733 231.39 196.186 230.577C183.459 229.765 178.224 227.598 171.996 216.722C171.996 216.722 171.906 216.722 171.906 216.632C171.906 216.541 171.906 216.496 171.906 216.406C167.167 204.04 165.632 177.502 175.381 165.272C185.987 151.913 211.712 147.355 227.327 148.618C227.959 148.663 228.049 147.671 227.372 147.625H227.282C227.011 138.283 227.372 132.1 220.196 125.872C213.336 119.96 201.331 119.689 192.441 119.96C191.177 112.558 190.229 105.066 189.507 97.5293C198.849 95.1825 211.621 96.8524 220.738 97.5745C230.532 98.3868 241.905 101.727 248.043 109.715C254.496 118.109 255.625 129.844 256.257 140.269C256.257 140.269 256.257 140.269 256.257 140.314C256.166 140.404 256.121 140.495 256.121 140.63C257.204 168.341 260.544 197.135 258.152 225.116L258.107 225.161ZM228.14 170.327C228.23 169.74 227.417 169.695 227.192 170.236C220.106 170.642 209.861 170.462 203.723 175.11C197.856 179.579 195.961 187.973 195.464 194.652C195.058 199.888 196.412 203.408 201.828 203.724C210.222 204.265 218.752 201.016 226.244 197.18C226.515 197.315 226.966 197.18 227.056 196.774C227.598 192.306 227.914 187.883 227.914 183.46C227.914 179.037 227.327 174.795 228.14 170.327ZM206.747 202.189C204.897 202.415 201.602 203.137 199.842 202.505C195.239 200.881 196.322 195.239 196.909 191.629C198.127 184.001 200.835 176.149 209.094 173.531C214.826 171.726 221.144 171.5 227.056 171.184C226.515 175.291 226.921 179.263 226.966 183.415C226.966 187.702 226.65 191.945 226.154 196.187C226.109 196.187 226.018 196.187 225.973 196.187C219.565 199.482 213.833 201.377 206.792 202.144L206.747 202.189ZM365.385 107.864C365.61 107.639 365.746 107.278 365.385 107.097C358.795 103.983 351.981 102.674 344.579 103.893C344.489 103.487 343.947 103.216 343.721 103.712C329.686 132.145 321.517 162.97 308.699 191.945C305.405 172.042 300.711 152.5 296.559 132.912C293.987 120.637 288.616 111.565 283.877 100.418C283.877 100.147 283.742 99.8762 283.426 99.831C274.038 98.793 265.193 103.035 255.85 102.719C255.805 102.719 255.76 102.719 255.76 102.719C255.76 102.719 255.715 102.719 255.67 102.719C255.58 102.719 255.534 102.765 255.489 102.855C255.444 102.9 255.399 102.99 255.399 103.081C255.399 103.081 255.399 103.126 255.399 103.171C255.399 103.171 255.399 103.261 255.399 103.306C261.311 126.233 268.532 148.709 274.354 171.726C276.656 180.842 277.92 190.23 279.951 199.436C281.801 207.741 286.089 216.902 286.991 225.297C286.991 225.613 287.307 225.703 287.533 225.658C291.91 228.546 297.01 229.99 302.426 229.494C307.616 229.043 314.251 229.494 319.08 226.876C319.26 226.876 319.441 226.786 319.531 226.56C334.244 187.07 348.19 146.768 365.565 108.226C365.655 108.045 365.565 107.91 365.52 107.819L365.385 107.864ZM318.583 226.064C314.341 228.366 308.745 227.644 304.096 228.275C298.184 229.088 292.768 228.05 287.939 224.8C287.939 224.8 287.894 224.8 287.849 224.8C286.901 216.586 282.704 207.605 280.853 199.256C278.822 190.049 277.604 180.662 275.257 171.545C269.48 148.754 262.349 126.459 256.482 103.757C265.373 103.893 273.993 100.057 282.929 100.869C295.431 130.159 302.877 162.067 308.068 194.201C308.158 194.833 309.151 194.562 309.06 193.93C309.06 193.84 309.06 193.75 309.015 193.66C309.015 193.66 309.06 193.66 309.106 193.569C322.103 164.55 330.272 133.544 344.263 104.976C351.529 103.667 358.254 104.931 364.663 107.91C364.663 107.955 364.572 107.955 364.527 108.045C347.197 146.497 333.296 186.709 318.628 226.064H318.583ZM408.982 117.026C390.613 118.651 386.1 138.103 383.798 152.906C383.257 152.996 383.212 153.854 383.798 153.899C397.473 154.485 412.592 156.381 425.771 150.469C425.861 150.469 425.906 150.378 425.996 150.288C426.041 150.243 426.087 150.153 426.087 150.108C428.704 137.606 425.816 115.537 408.937 117.071L408.982 117.026ZM384.836 152.906C386.642 141.172 388.988 127 400.678 120.546C421.032 109.309 428.208 134.718 425.184 149.611C412.592 155.162 397.97 153.492 384.791 152.861L384.836 152.906ZM434.346 101.095C434.346 101.095 434.346 101.095 434.301 101.095C434.301 101.095 434.301 101.095 434.255 101.05C415.842 95.2728 392.057 96.8524 375.72 109.986C361.684 121.269 356.81 140.314 354.779 157.013C350.852 189.688 352.297 221.054 387.364 229.9C387.364 229.9 387.409 229.9 387.454 229.9C387.454 229.9 387.454 229.9 387.499 229.9C405.146 231.209 428.659 234.729 443.462 220.738C443.778 220.423 443.598 220.062 443.282 219.926C443.868 214.42 444.726 208.869 445.042 203.363C445.267 199.211 444.816 194.968 445.493 190.816C445.493 190.771 445.493 190.726 445.493 190.681C445.583 190.41 445.493 190.049 445.087 190.094C437.234 190.726 429.471 192.396 421.664 192.667C421.258 192.667 421.122 193.073 421.212 193.389C418.82 200.204 399.233 197.992 394.81 196.774C383.798 193.75 378.247 184.001 381.361 172.764C394.179 173.666 407.944 172.042 420.806 170.462C429.923 169.334 444.861 169.424 452.624 163.782C452.714 163.692 452.759 163.602 452.804 163.512C453.075 163.512 453.391 163.421 453.436 163.06C456.911 139.772 458.536 111.701 434.436 101.05L434.346 101.095ZM452.398 162.88C452.398 162.88 452.218 162.88 452.128 162.925C443.462 169.243 422.115 169.469 412.773 170.281C402.483 171.184 391.832 172.493 381.632 171.816C381.632 171.726 381.677 171.635 381.722 171.545C381.948 170.913 380.955 170.642 380.775 171.274C376.938 182.828 381.722 194.066 393.321 197.541C399.098 199.256 419.452 202.235 422.16 193.75C429.652 193.434 437.054 191.899 444.5 191.268C443.914 195.284 444.32 199.391 444.094 203.453C443.778 209.185 442.876 214.871 442.289 220.558C427.711 233.691 404.875 230.216 387.725 228.952C356.042 220.964 353.335 195.149 355.23 165.994C356.178 151.01 358.841 132.551 368.093 119.554C382.805 98.8382 412.818 95.4082 433.985 102.042C457.679 112.648 455.873 140.179 452.489 162.925L452.398 162.88ZM509.038 229.404C508.948 230.036 507.955 230.036 508.045 229.404C509.445 217.263 507.549 205.213 509.264 192.983C501.727 195.375 494.28 196.458 486.518 196.277C486.518 196.638 486.518 196.999 486.518 197.405C486.518 198.037 485.48 198.037 485.525 197.405C485.525 197.044 485.525 196.638 485.525 196.277C484.893 196.277 484.938 195.239 485.57 195.284C486.879 144.827 491.708 93.7383 495.273 43.2361C495.273 43.2361 495.273 43.2361 495.273 43.1909C489.451 43.3263 483.629 43.8228 477.807 44.4546C472.301 45.0413 464.539 44.3644 459.213 46.1245C459.213 46.1696 459.303 46.2148 459.303 46.305C460.883 108.18 462.463 170.101 464.087 231.976C471.399 232.382 478.62 232.202 485.976 231.164C492.701 230.216 500.508 229.81 507.007 227.96C507.639 227.779 507.865 228.772 507.233 228.952C500.373 230.893 493.062 231.209 486.066 232.247C478.665 233.33 471.308 233.466 463.952 233.059C463.681 233.33 463.094 233.195 463.094 232.743C461.515 170.642 459.89 108.541 458.311 46.3953C458.311 46.3953 458.311 46.3953 458.311 46.3502C457.995 46.1696 457.995 45.5829 458.491 45.4024C463.275 43.5971 470.225 44.3644 475.325 43.8228C482.14 43.1007 488.955 42.4237 495.77 42.2883C496.221 42.2883 496.311 42.6945 496.131 43.0104C496.221 43.1007 496.266 43.1909 496.266 43.3715C492.656 93.8737 487.827 144.963 486.563 195.465C494.461 195.645 502.088 194.517 509.76 191.99C510.167 191.854 510.392 192.215 510.302 192.576C510.302 192.622 510.347 192.667 510.347 192.757C508.497 205.123 510.483 217.308 509.084 229.629L509.038 229.404ZM123.66 20.3092C123.66 20.3092 124.066 20.4898 124.156 20.3092C127 20.1287 129.798 19.8579 132.596 19.542C135.53 19.2261 138.96 18.6394 141.893 18.8199C142.615 40.2574 142.345 61.7851 143.021 83.2226C142.751 83.358 142.706 83.8093 143.067 83.7642C143.112 83.7642 143.202 83.7642 143.247 83.7642C143.337 83.7642 143.428 83.7642 143.473 83.7642C148.031 83.4483 152.635 83.358 157.193 82.8165C157.328 82.9067 157.509 82.8616 157.599 82.7262C157.825 82.5908 157.825 82.32 157.599 82.2297C156.787 60.9276 155.433 39.8061 155.658 18.4137C159.179 18.4589 162.609 17.8721 166.129 17.6916C168.566 17.5562 170.958 17.9173 173.395 17.6916C173.621 17.6916 173.711 17.466 173.666 17.3306C173.666 17.3306 173.666 17.2854 173.666 17.2403C172.583 12.4564 174.117 6.67952 174.207 1.76018C174.207 1.53452 174.027 1.44426 173.846 1.48939C157.238 1.30886 140.675 0.677021 124.111 0.270837C124.111 -0.0450841 123.57 4.74676e-05 123.525 0.3611C122.396 6.76978 123.209 13.4493 123.525 19.8579C123.299 19.9933 123.299 20.3995 123.615 20.3995L123.66 20.3092ZM124.111 0.812415C140.63 1.2186 157.148 1.89557 173.666 2.03097C173.53 6.86004 172.176 12.3661 173.124 17.0598C170.777 17.1952 168.521 16.9244 166.219 17.0598C162.609 17.2403 159.043 17.8721 155.388 17.7819C155.342 17.7819 155.297 17.7819 155.252 17.827C155.162 17.827 155.072 17.9173 155.072 18.0978C154.846 39.5804 156.2 60.8374 157.012 82.2297C152.589 82.7262 148.076 82.8616 143.608 83.1324C142.931 61.74 143.202 40.2123 142.48 18.8199C142.525 18.8199 142.615 18.8199 142.66 18.8199C143.067 18.8199 143.067 18.2332 142.66 18.2332C142.57 18.2332 142.48 18.2332 142.39 18.2332C142.39 18.2332 142.39 18.1881 142.39 18.1429C142.39 17.7367 141.758 17.7367 141.803 18.1429C141.803 18.1429 141.803 18.1881 141.803 18.2332C138.779 18.0978 135.575 18.6845 132.551 18.9553C129.708 19.2261 126.91 19.542 124.066 19.7225C123.75 13.5395 123.028 7.0857 124.021 0.857547L124.111 0.812415ZM344.85 20.3092C344.85 20.3092 345.256 20.4898 345.346 20.3092C348.144 20.1287 350.988 19.8579 353.786 19.542C356.719 19.2261 360.149 18.6394 363.083 18.8199C363.805 40.2574 363.534 61.7851 364.211 83.2226C363.94 83.358 363.895 83.8093 364.256 83.7642C364.301 83.7642 364.392 83.7642 364.437 83.7642C364.527 83.7642 364.617 83.7642 364.663 83.7642C369.221 83.4483 373.824 83.358 378.383 82.8165C378.518 82.9067 378.698 82.8616 378.789 82.7262C379.014 82.5908 379.014 82.32 378.789 82.2297C377.976 60.9276 376.622 39.8061 376.848 18.4137C380.368 18.4589 383.798 17.8721 387.319 17.6916C389.756 17.5562 392.148 17.9173 394.585 17.6916C394.81 17.6916 394.901 17.466 394.856 17.3306C394.856 17.3306 394.856 17.2854 394.856 17.2403C393.772 12.4564 395.307 6.67952 395.397 1.76018C395.397 1.53452 395.217 1.44426 395.036 1.48939C378.428 1.30886 361.864 0.677021 345.301 0.270837C345.301 -0.0450841 344.759 4.74676e-05 344.714 0.3611C343.586 6.76978 344.398 13.4493 344.714 19.8579C344.489 19.9933 344.489 20.3995 344.805 20.3995L344.85 20.3092ZM345.301 0.812415C361.819 1.2186 378.337 1.89557 394.856 2.03097C394.72 6.86004 393.366 12.3661 394.314 17.0598C391.967 17.1952 389.711 16.9244 387.409 17.0598C383.798 17.2403 380.233 17.8721 376.577 17.7819C376.532 17.7819 376.487 17.7819 376.442 17.827C376.352 17.827 376.261 17.9173 376.261 18.0978C376.036 39.5804 377.39 60.8374 378.202 82.2297C373.779 82.7262 369.266 82.8616 364.798 83.1324C364.121 61.74 364.392 40.2123 363.67 18.8199C363.715 18.8199 363.805 18.8199 363.85 18.8199C364.256 18.8199 364.256 18.2332 363.85 18.2332C363.76 18.2332 363.67 18.2332 363.579 18.2332C363.579 18.2332 363.579 18.1881 363.579 18.1429C363.579 17.7367 362.948 17.7367 362.993 18.1429C362.993 18.1429 362.993 18.1881 362.993 18.2332C359.969 18.0978 356.764 18.6845 353.741 18.9553C350.897 19.2261 348.099 19.542 345.256 19.7225C344.94 13.5395 344.218 7.0857 345.211 0.857547L345.301 0.812415ZM174.027 82.4103C174.027 82.7713 174.478 82.7713 174.614 82.5005C174.614 82.5005 174.704 82.5457 174.749 82.5457C177.006 82.3651 179.307 82.32 181.519 81.8687C182.782 81.5979 183.911 81.3271 185.219 81.282C186.258 81.282 187.386 81.5076 188.424 81.2368C188.604 81.2368 188.83 81.2368 188.83 80.9661C192.305 55.4667 191.041 29.7869 194.742 4.28755C194.742 4.10702 194.652 4.01676 194.517 4.01676C194.517 3.92649 194.471 3.83623 194.336 3.7911C189.778 1.98584 184.181 3.56544 179.307 3.70083C179.262 3.38491 178.766 3.38491 178.721 3.74597C178.721 3.74597 178.721 3.74597 178.721 3.7911C178.63 3.88136 178.63 4.06189 178.721 4.19728C177.367 30.2833 175.471 56.3694 173.982 82.4554L174.027 82.4103ZM194.156 4.33268C190.5 29.7417 191.718 55.2862 188.288 80.6501C186.393 81.1466 184.272 80.5147 182.331 80.8758C179.804 81.3722 177.367 81.7333 174.749 81.9138C174.704 81.9138 174.659 81.9138 174.659 81.9589C176.148 56.0534 178.044 30.1479 179.398 4.19728C184.046 4.06189 189.913 2.57255 194.201 4.24241L194.156 4.33268ZM202.054 2.12123C202.054 2.12123 202.054 2.12123 202.054 2.16636C201.557 28.117 200.113 54.1579 199.346 80.1537C199.346 80.4696 199.707 80.5147 199.887 80.3342C201.286 81.4174 204.22 81.0563 205.799 81.0563C208.237 81.0563 211.125 80.6501 213.066 78.8449C213.111 78.7997 213.111 78.7546 213.111 78.7095C213.156 78.6643 213.246 78.5741 213.246 78.4838C212.975 68.2841 214.781 58.2649 215.232 48.1103C215.593 40.2123 215.322 32.4496 216.089 24.5967C216.721 29.7417 218.888 35.2027 219.655 40.1671C221.415 51.2695 223.626 63.5001 226.379 74.3317C226.379 74.4671 226.515 74.5122 226.605 74.5122C226.65 74.6025 226.741 74.6928 226.921 74.6928C229.132 74.3768 231.389 74.2866 233.601 74.3317C233.51 74.6928 234.052 74.8733 234.187 74.5122C238.7 57.8587 241.544 40.7538 245.335 23.9649C246.102 43.2812 246.328 62.6878 246.147 82.0943C246.147 82.32 246.328 82.4103 246.508 82.3651C247.23 83.4934 249.577 82.8616 250.705 82.6359C252.962 82.1846 256.121 82.2749 257.972 80.6501C258.242 80.4245 257.972 80.1086 257.701 80.1988C256.843 54.6995 254.406 27.8913 257.024 2.25663C257.024 2.12123 256.979 2.0761 256.888 2.03097C255.354 0.812415 251.382 1.66991 249.442 1.76018C245.38 1.85044 241.318 2.03097 237.256 2.0761C237.076 2.0761 236.94 2.25663 236.94 2.39202C233.871 7.44675 233.239 13.0431 232.066 18.6394C230.667 25.364 229.313 32.0886 227.914 38.8132C226.334 27.4852 224.664 16.2023 222.769 4.96452C223.04 4.96452 223.22 4.60347 222.949 4.42294C219.7 1.98584 216.947 2.57255 212.975 1.9407C209.41 1.39913 205.799 2.16636 202.234 1.80531C201.918 1.80531 201.873 2.21149 202.054 2.34689V2.12123ZM222.272 4.5132C222.272 4.5132 222.092 4.69373 222.137 4.82912C224.168 16.9695 225.973 29.1099 227.643 41.2954C227.688 41.6565 228.275 41.5211 228.23 41.1149C228.23 40.8441 228.14 40.6184 228.14 40.3477C229.448 34.0744 230.712 27.8011 232.021 21.5278C233.33 15.2094 233.962 8.21399 237.437 2.52741C240.731 2.52741 244.026 2.39202 247.366 2.30176C249.442 2.25663 254.587 1.17347 256.392 2.39202C253.774 28.0719 256.257 54.9251 257.069 80.4696C254.903 81.4625 247.14 83.0872 246.914 81.7784C246.914 81.6882 246.824 81.643 246.779 81.5979C246.959 61.7851 246.779 42.0175 245.921 22.2499C245.921 21.8889 245.47 21.8889 245.335 22.1596C245.244 22.1596 245.154 22.2048 245.109 22.3402C241.183 39.3999 238.339 56.8207 233.781 73.745C231.524 73.745 229.223 73.7901 226.966 74.1061C224.439 64.1771 223.085 53.5261 220.964 43.4166C220.016 39.0388 219.655 34.5257 218.707 30.1028C218.256 28.0267 216.496 23.2879 216.541 21.6181C216.541 21.2119 215.954 21.2119 215.954 21.6181C215.909 21.6632 215.864 21.7535 215.819 21.8437C214.645 30.6444 215.097 39.3096 214.645 48.1103C214.149 58.2649 212.389 68.2841 212.659 78.4387C210.899 80.0634 208.101 80.4245 205.89 80.4696C204.581 80.4696 201.016 80.6953 200.068 79.567C200.835 53.7969 202.279 28.0267 202.731 2.25663C208.914 2.70794 217.173 0.94781 222.363 4.55833L222.272 4.5132ZM262.44 82.0041C262.44 82.3651 262.981 82.3651 263.026 82.0041C270.789 81.4174 278.552 80.5599 286.314 80.2891C293.039 80.0634 300.666 79.0254 307.436 79.2962C307.526 79.4767 307.797 79.5218 307.932 79.2962C307.977 79.2962 308.068 79.2962 308.113 79.2962C308.519 79.2962 308.519 78.7095 308.113 78.7095C308.113 78.7095 308.068 78.7095 308.022 78.7095C308.88 74.2415 308.97 69.7734 308.835 65.2603C308.835 64.8992 308.338 64.8992 308.248 65.17C308.248 65.17 308.158 65.1249 308.113 65.1249C302.742 65.3957 297.371 65.4859 292.001 65.7116C286.811 65.8921 281.305 66.9301 276.16 66.5691C275.889 57.3171 276.114 48.1103 276.791 38.8132C283.245 38.5424 289.609 38.7229 295.972 38.7229C296.198 38.7229 296.288 38.5424 296.288 38.3619C296.469 38.407 296.694 38.3619 296.74 38.0911C297.01 36.3309 297.326 34.616 297.597 32.8558C297.732 32.0886 297.823 31.3665 297.958 30.5992C298.003 30.1931 297.958 28.7037 298.274 28.3427C298.635 28.3427 298.68 27.756 298.274 27.756C294.618 27.6206 291.098 26.8985 287.442 26.8082C284.012 26.7179 280.582 26.8985 277.152 26.9436C277.062 23.1977 277.017 19.4066 277.468 15.6607C287.036 16.0217 296.604 16.0217 306.127 16.3828C306.488 16.3828 306.533 15.9315 306.262 15.8412C307.165 15.1642 306.849 12.7271 306.894 11.8696C307.12 9.11662 307.3 6.31847 307.526 3.56544C307.616 3.47518 307.616 3.29465 307.526 3.15926C307.526 3.15926 307.526 3.11412 307.526 3.06899C307.526 2.75307 307.165 2.70794 306.984 2.88847C301.208 0.586758 294.528 1.76018 288.3 1.57965C280.763 1.35399 273.181 2.84334 265.734 2.12123C265.509 2.12123 265.418 2.30176 265.463 2.48228C265.328 2.48228 265.193 2.57255 265.147 2.75307C262.936 14.3519 264.155 26.8985 263.974 38.5875C263.748 53.0296 263.297 67.4266 262.394 81.8687L262.44 82.0041ZM265.779 2.84334C272.233 3.47518 278.597 2.03097 285.05 2.12123C291.82 2.21149 300.847 1.17347 306.939 3.61057C306.804 5.5061 306.668 7.40162 306.533 9.25202C306.533 9.83873 306.443 15.3448 305.901 15.4802C305.721 15.5253 305.63 15.7058 305.676 15.8412C296.288 15.4802 286.856 15.435 277.468 15.1191C277.378 14.9386 277.107 14.9386 276.972 15.1191C276.701 15.1191 276.656 15.5253 276.882 15.6607C276.43 19.4517 276.475 23.2428 276.566 27.0338C276.566 27.0338 276.566 27.0338 276.475 27.0338C276.069 27.0338 276.069 27.6657 276.475 27.6206C276.475 27.6206 276.566 27.6206 276.611 27.6206C276.611 27.6206 276.611 27.6206 276.611 27.6657C276.611 28.0719 277.243 28.0719 277.198 27.6657C277.198 27.6657 277.198 27.6206 277.198 27.5754C280.628 27.4852 284.058 27.3046 287.442 27.44C290.872 27.5754 294.257 28.1621 297.687 28.3427C297.281 29.2002 297.371 30.5992 297.236 31.3665C296.875 33.6231 296.514 35.8345 296.153 38.0911C296.153 38.0911 296.153 38.0911 296.153 38.1362C296.153 38.1362 296.108 38.0911 296.063 38.0911C289.609 38.0911 283.155 37.9106 276.656 38.1813C276.521 38.1813 276.475 38.2716 276.43 38.3167C276.34 38.3619 276.25 38.4521 276.25 38.5424C275.528 47.9749 275.302 57.3623 275.573 66.7496C275.573 66.9301 275.618 67.0655 275.844 67.1107C281.124 67.5169 286.63 66.4337 292.001 66.2532C297.371 66.0726 302.742 65.9372 308.113 65.6665C308.158 65.6665 308.203 65.6665 308.248 65.6213C308.384 69.954 308.248 74.2866 307.436 78.6192C300.666 78.3484 293.174 79.3864 286.359 79.6121C278.597 79.8829 270.834 80.7404 263.071 81.3271C263.929 67.0655 264.425 52.8491 264.606 38.5875C264.786 27.2144 263.703 13.7652 265.779 2.75307V2.84334ZM419.633 73.1132C419.633 73.1132 419.678 73.1132 419.723 73.1132C431.999 73.4291 432.224 50.8182 433.263 42.6945C434.526 32.6302 436.963 14.3519 423.108 13.1785C423.108 13.1785 423.108 13.1785 423.063 13.1785C416.383 14.1714 413.946 13.359 411.238 19.6323C407.492 28.3427 407.176 39.3096 407.447 48.3359C407.718 57.949 407.357 72.9326 419.723 73.0229L419.633 73.1132ZM410.606 23.3782C413.224 14.7581 415.436 14.9837 423.063 13.8554C426.357 17.0146 429.697 20.1739 432.992 23.2879C433.578 26.4471 433.759 29.6966 433.578 32.9461C433.488 36.2407 433.082 39.4902 432.676 42.7848C431.863 49.2386 430.735 72.4813 420.039 72.5716C405.732 72.7521 407.763 50.8182 408.079 41.9724C408.305 35.8796 408.846 29.3807 410.652 23.4233L410.606 23.3782ZM416.293 83.7191C424.868 83.8545 431.006 83.9447 436.512 76.5883C442.199 69.0062 444.771 57.949 446.351 49.0129C449.736 30.2382 448.066 5.41583 427.034 0.767284C426.899 0.767284 426.764 0.812415 426.718 0.94781C403.566 -2.03087 395.171 14.2165 393.186 35.2478C391.516 52.8942 395.036 82.0943 416.293 83.7191ZM426.899 1.53452C426.899 1.53452 427.125 1.53452 427.17 1.44426C446.667 5.95741 448.652 28.8842 446.351 45.944C444.004 63.2745 437.821 83.4483 416.338 83.1324C396.977 81.643 393.231 54.6544 393.637 40.0769C394.179 20.5349 400.136 -2.12114 426.899 1.53452Z" fill="white"/>
</g>
<defs>
<clipPath id="clip0_269_8467">
<rect width="510.302" height="235" fill="white"/>
</clipPath>
</defs>
</svg>
